<svg width="375" height="812" viewBox="0 0 375 812" fill="none" xmlns="http://www.w3.org/2000/svg">
<g clip-path="url(#clip0_3358_310)">
<rect width="375" height="812" rx="9" fill="white"/>
<path d="M34.9886 16.2045C35.5076 16.2083 36.0189 16.303 36.5227 16.4886C37.0265 16.6742 37.4811 16.9773 37.8864 17.3977C38.2955 17.8182 38.6212 18.3864 38.8636 19.1023C39.1098 19.8144 39.2348 20.7008 39.2386 21.7614C39.2386 22.7803 39.1364 23.6875 38.9318 24.483C38.7273 25.2746 38.4337 25.9432 38.0511 26.4886C37.6723 27.0341 37.2121 27.4489 36.6705 27.733C36.1288 28.017 35.5189 28.1591 34.8409 28.1591C34.1477 28.1591 33.5322 28.0227 32.9943 27.75C32.4564 27.4773 32.0189 27.1004 31.6818 26.6193C31.3447 26.1345 31.1345 25.5777 31.0511 24.9489H32.7841C32.8977 25.4489 33.1288 25.8542 33.4773 26.1648C33.8295 26.4716 34.2841 26.625 34.8409 26.625C35.6932 26.625 36.358 26.2538 36.8352 25.5114C37.3125 24.7652 37.553 23.7235 37.5568 22.3864H37.4659C37.2689 22.7121 37.0227 22.9924 36.7273 23.2273C36.4356 23.4621 36.108 23.6439 35.7443 23.7727C35.3807 23.9015 34.9924 23.9659 34.5795 23.9659C33.9091 23.9659 33.2992 23.8011 32.75 23.4716C32.2008 23.142 31.7633 22.6894 31.4375 22.1136C31.1117 21.5379 30.9489 20.8807 30.9489 20.142C30.9489 19.4072 31.1155 18.7405 31.4489 18.142C31.786 17.5436 32.2557 17.0701 32.858 16.7216C33.464 16.3693 34.1742 16.197 34.9886 16.2045ZM34.9943 17.6818C34.5511 17.6818 34.1515 17.7917 33.7955 18.0114C33.4432 18.2273 33.1648 18.5208 32.9602 18.892C32.7557 19.2595 32.6534 19.6686 32.6534 20.1193C32.6534 20.5701 32.7519 20.9792 32.9489 21.3466C33.1496 21.7102 33.4223 22 33.767 22.2159C34.1155 22.428 34.5133 22.5341 34.9602 22.5341C35.2936 22.5341 35.6042 22.4697 35.892 22.3409C36.1799 22.2121 36.4318 22.0341 36.6477 21.8068C36.8636 21.5758 37.0322 21.3144 37.1534 21.0227C37.2746 20.7311 37.3352 20.4242 37.3352 20.1023C37.3352 19.6742 37.233 19.2765 37.0284 18.9091C36.8277 18.5417 36.5511 18.2462 36.1989 18.0227C35.8466 17.7955 35.4451 17.6818 34.9943 17.6818ZM42.4332 26.5568C42.1226 26.5568 41.8556 26.447 41.6321 26.2273C41.4086 26.0038 41.2969 25.7348 41.2969 25.4205C41.2969 25.1098 41.4086 24.8447 41.6321 24.625C41.8556 24.4015 42.1226 24.2898 42.4332 24.2898C42.7438 24.2898 43.0109 24.4015 43.2344 24.625C43.4579 24.8447 43.5696 25.1098 43.5696 25.4205C43.5696 25.6288 43.5166 25.8201 43.4105 25.9943C43.3082 26.1648 43.1719 26.3011 43.0014 26.4034C42.831 26.5057 42.6416 26.5568 42.4332 26.5568ZM42.4332 20.7273C42.1226 20.7273 41.8556 20.6174 41.6321 20.3977C41.4086 20.1742 41.2969 19.9053 41.2969 19.5909C41.2969 19.2803 41.4086 19.0152 41.6321 18.7955C41.8556 18.572 42.1226 18.4602 42.4332 18.4602C42.7438 18.4602 43.0109 18.572 43.2344 18.7955C43.4579 19.0152 43.5696 19.2803 43.5696 19.5909C43.5696 19.7992 43.5166 19.9905 43.4105 20.1648C43.3082 20.3352 43.1719 20.4716 43.0014 20.5739C42.831 20.6761 42.6416 20.7273 42.4332 20.7273ZM45.5781 25.7273V24.3068L50.6065 16.3636H51.7259V18.4545H51.0156L47.419 24.1477V24.2386H54.3111V25.7273H45.5781ZM51.0952 28V25.2955L51.1065 24.6477V16.3636H52.7713V28H51.0952ZM60.5497 16.3636V28H58.7884V18.125H58.7202L55.9361 19.9432V18.2614L58.8395 16.3636H60.5497Z" fill="#021433"/>
<path d="M285 22.5C285.552 22.5 286 22.9477 286 23.5V25.5C286 26.0523 285.552 26.5 285 26.5H284C283.448 26.5 283 26.0523 283 25.5V23.5C283 22.9477 283.448 22.5 284 22.5H285ZM290 20.5C290.552 20.5 291 20.9477 291 21.5V25.5C291 26.0523 290.552 26.5 290 26.5H289C288.448 26.5 288 26.0523 288 25.5V21.5C288 20.9477 288.448 20.5 289 20.5H290ZM295 18.5C295.552 18.5 296 18.9298 296 19.46V25.54C296 26.0702 295.552 26.5 295 26.5H294C293.448 26.4999 293 26.0702 293 25.54V19.46C293 18.9298 293.448 18.5001 294 18.5H295ZM300 16.5C300.552 16.5 301 16.9197 301 17.4375V25.5625C301 26.0803 300.552 26.5 300 26.5H299C298.448 26.5 298 26.0803 298 25.5625V17.4375C298 16.9197 298.448 16.5 299 16.5H300Z" fill="#021433"/>
<path d="M311.427 24.4179C312.702 23.339 314.571 23.339 315.847 24.4179C315.911 24.4759 315.947 24.5581 315.949 24.6445C315.951 24.7308 315.917 24.8144 315.855 24.8749L313.858 26.8906C313.8 26.9497 313.72 26.9823 313.637 26.9824C313.554 26.9824 313.474 26.9496 313.415 26.8906L311.417 24.8749C311.355 24.8143 311.321 24.73 311.323 24.6435C311.325 24.5573 311.363 24.4758 311.427 24.4179ZM308.762 21.7284C311.51 19.1724 315.766 19.1724 318.514 21.7284C318.576 21.7883 318.611 21.8708 318.612 21.957C318.613 22.0431 318.579 22.1263 318.519 22.1874L317.364 23.3544C317.245 23.4735 317.053 23.4761 316.931 23.3603C316.028 22.5431 314.854 22.0907 313.637 22.0908C312.42 22.0913 311.247 22.5436 310.345 23.3603C310.223 23.4761 310.03 23.4735 309.911 23.3544L308.757 22.1874C308.696 22.1264 308.662 22.0431 308.663 21.957C308.664 21.8708 308.7 21.7883 308.762 21.7284ZM306.097 19.0468C310.312 15.0076 316.962 15.0074 321.177 19.0468C321.238 19.1067 321.272 19.1889 321.272 19.2743C321.273 19.3599 321.239 19.4421 321.179 19.5029L320.022 20.6699C319.903 20.7893 319.711 20.7906 319.59 20.6728C317.984 19.1461 315.853 18.295 313.637 18.2949C311.421 18.2948 309.289 19.1459 307.683 20.6728C307.562 20.7908 307.369 20.7895 307.25 20.6699L306.094 19.5029C306.033 19.4421 305.999 19.3599 306 19.2743C306.001 19.1888 306.036 19.1067 306.097 19.0468Z" fill="#021433"/>
<path opacity="0.2" d="M328.939 15.5H348.605C349.802 15.5 350.772 16.4704 350.772 17.667V25.333C350.772 26.5296 349.802 27.5 348.605 27.5H328.939C327.743 27.5 326.772 26.5296 326.772 25.333V17.667L326.783 17.4453C326.894 16.3527 327.817 15.5 328.939 15.5Z" stroke="#021433"/>
<path opacity="0.2" d="M351.922 19V23C352.727 22.6612 353.25 21.8731 353.25 21C353.25 20.1269 352.727 19.3388 351.922 19Z" fill="#021433"/>
<path d="M328.572 18.6663C328.572 17.93 329.169 17.333 329.906 17.333H347.439C348.175 17.333 348.772 17.93 348.772 18.6663V24.3297C348.772 25.0661 348.175 25.663 347.439 25.663H329.906C329.169 25.663 328.572 25.0661 328.572 24.3297V18.6663Z" fill="#021433"/>
<path fill-rule="evenodd" clip-rule="evenodd" d="M114 801.5C114 800.119 115.119 799 116.5 799H259.5C260.881 799 262 800.119 262 801.5C262 802.881 260.881 804 259.5 804H116.5C115.119 804 114 802.881 114 801.5Z" fill="#111827"/>
<path d="M91.8389 78H87.13V63.4545H91.988C93.4132 63.4545 94.6371 63.7457 95.6599 64.3281C96.6826 64.9058 97.4662 65.7367 98.0107 66.821C98.56 67.9006 98.8346 69.1955 98.8346 70.706C98.8346 72.2211 98.5576 73.5232 98.0036 74.6122C97.4544 75.7012 96.6589 76.5393 95.6173 77.1264C94.5756 77.7088 93.3161 78 91.8389 78ZM89.3246 76.0824H91.7181C92.8261 76.0824 93.747 75.8741 94.4809 75.4574C95.2148 75.036 95.764 74.4276 96.1286 73.6321C96.4932 72.8319 96.6755 71.8565 96.6755 70.706C96.6755 69.5649 96.4932 68.5966 96.1286 67.8011C95.7688 67.0057 95.2314 66.402 94.5164 65.9901C93.8014 65.5781 92.9137 65.3722 91.8531 65.3722H89.3246V76.0824ZM103.768 78.2415C103.077 78.2415 102.452 78.1136 101.893 77.858C101.334 77.5975 100.891 77.2211 100.565 76.7287C100.243 76.2363 100.082 75.6326 100.082 74.9176C100.082 74.3021 100.2 73.7955 100.437 73.3977C100.674 73 100.993 72.6851 101.396 72.4531C101.798 72.2211 102.248 72.0459 102.745 71.9276C103.242 71.8092 103.749 71.7192 104.265 71.6577C104.918 71.5819 105.449 71.5204 105.856 71.473C106.263 71.4209 106.559 71.3381 106.744 71.2244C106.928 71.1108 107.021 70.9261 107.021 70.6705V70.6207C107.021 70.0005 106.846 69.5199 106.495 69.179C106.15 68.8381 105.633 68.6676 104.947 68.6676C104.232 68.6676 103.668 68.8262 103.257 69.1435C102.849 69.456 102.568 69.804 102.411 70.1875L100.416 69.733C100.652 69.0701 100.998 68.535 101.453 68.1278C101.912 67.7159 102.44 67.4176 103.036 67.233C103.633 67.0436 104.26 66.9489 104.918 66.9489C105.354 66.9489 105.816 67.0009 106.303 67.1051C106.796 67.2045 107.255 67.3892 107.681 67.6591C108.112 67.929 108.465 68.3149 108.739 68.8168C109.014 69.3139 109.151 69.9602 109.151 70.7557V78H107.078V76.5085H106.992C106.855 76.7831 106.649 77.053 106.374 77.3182C106.1 77.5833 105.747 77.8035 105.316 77.9787C104.885 78.1539 104.369 78.2415 103.768 78.2415ZM104.23 76.5369C104.817 76.5369 105.319 76.4209 105.735 76.1889C106.157 75.9569 106.476 75.6539 106.694 75.2798C106.917 74.901 107.028 74.4962 107.028 74.0653V72.6591C106.952 72.7348 106.805 72.8059 106.588 72.8722C106.374 72.9337 106.131 72.9882 105.856 73.0355C105.581 73.0781 105.314 73.1184 105.053 73.1562C104.793 73.1894 104.575 73.2178 104.4 73.2415C103.988 73.2936 103.612 73.3812 103.271 73.5043C102.935 73.6274 102.665 73.8049 102.461 74.0369C102.262 74.2642 102.163 74.5672 102.163 74.946C102.163 75.4716 102.357 75.8693 102.745 76.1392C103.133 76.4044 103.628 76.5369 104.23 76.5369ZM119.355 69.7543L117.43 70.0952C117.349 69.849 117.222 69.6146 117.046 69.392C116.876 69.1695 116.644 68.9872 116.35 68.8452C116.057 68.7031 115.69 68.6321 115.25 68.6321C114.648 68.6321 114.146 68.767 113.744 69.0369C113.341 69.3021 113.14 69.6454 113.14 70.0668C113.14 70.4313 113.275 70.7249 113.545 70.9474C113.815 71.17 114.25 71.3523 114.852 71.4943L116.585 71.892C117.589 72.1241 118.337 72.4815 118.829 72.9645C119.321 73.4474 119.568 74.0748 119.568 74.8466C119.568 75.5 119.378 76.0824 119 76.5938C118.625 77.1004 118.102 77.4981 117.43 77.7869C116.762 78.0758 115.988 78.2202 115.107 78.2202C113.886 78.2202 112.889 77.9598 112.117 77.4389C111.346 76.9134 110.872 76.1676 110.697 75.2017L112.75 74.8892C112.877 75.4242 113.14 75.8291 113.538 76.1037C113.936 76.3736 114.454 76.5085 115.093 76.5085C115.789 76.5085 116.346 76.3641 116.762 76.0753C117.179 75.7817 117.387 75.4242 117.387 75.0028C117.387 74.6619 117.259 74.3755 117.004 74.1435C116.753 73.9115 116.367 73.7363 115.846 73.6179L114 73.2131C112.982 72.9811 112.229 72.6117 111.741 72.1051C111.258 71.5985 111.017 70.9569 111.017 70.1804C111.017 69.5365 111.196 68.973 111.556 68.4901C111.916 68.0071 112.413 67.6307 113.048 67.3608C113.682 67.0862 114.409 66.9489 115.228 66.9489C116.407 66.9489 117.335 67.2045 118.012 67.7159C118.689 68.2225 119.137 68.902 119.355 69.7543ZM123.226 71.5227V78H121.103V63.4545H123.198V68.8665H123.333C123.588 68.2794 123.979 67.813 124.505 67.4673C125.03 67.1217 125.717 66.9489 126.564 66.9489C127.312 66.9489 127.966 67.1027 128.524 67.4105C129.088 67.7183 129.523 68.1776 129.831 68.7884C130.144 69.3944 130.3 70.152 130.3 71.0611V78H128.176V71.3168C128.176 70.5166 127.97 69.8963 127.559 69.456C127.147 69.0109 126.574 68.7884 125.84 68.7884C125.338 68.7884 124.888 68.8949 124.49 69.108C124.097 69.321 123.787 69.6335 123.56 70.0455C123.337 70.4527 123.226 70.9451 123.226 71.5227ZM132.504 78V63.4545H134.628V68.8594H134.756C134.879 68.6321 135.056 68.3693 135.288 68.071C135.52 67.7727 135.842 67.5123 136.254 67.2898C136.666 67.0625 137.211 66.9489 137.888 66.9489C138.768 66.9489 139.554 67.1714 140.246 67.6165C140.937 68.0616 141.479 68.7031 141.872 69.5412C142.27 70.3793 142.469 71.3878 142.469 72.5668C142.469 73.7457 142.272 74.7566 141.879 75.5994C141.486 76.4375 140.946 77.0838 140.26 77.5384C139.573 77.9882 138.79 78.2131 137.909 78.2131C137.246 78.2131 136.704 78.1018 136.283 77.8793C135.866 77.6567 135.539 77.3963 135.303 77.098C135.066 76.7997 134.884 76.5346 134.756 76.3026H134.578V78H132.504ZM134.585 72.5455C134.585 73.3125 134.696 73.9848 134.919 74.5625C135.142 75.1402 135.464 75.5923 135.885 75.919C136.306 76.241 136.822 76.402 137.433 76.402C138.068 76.402 138.598 76.2339 139.024 75.8977C139.45 75.5568 139.772 75.0952 139.99 74.5128C140.213 73.9304 140.324 73.2746 140.324 72.5455C140.324 71.8258 140.215 71.1795 139.997 70.6065C139.784 70.0336 139.462 69.5814 139.031 69.25C138.605 68.9186 138.072 68.7528 137.433 68.7528C136.818 68.7528 136.297 68.9115 135.871 69.2287C135.449 69.5459 135.13 69.9886 134.912 70.5568C134.694 71.125 134.585 71.7879 134.585 72.5455ZM148.649 78.2202C147.626 78.2202 146.733 77.9858 145.971 77.517C145.209 77.0483 144.617 76.3925 144.195 75.5497C143.774 74.7069 143.563 73.7221 143.563 72.5952C143.563 71.4635 143.774 70.474 144.195 69.6264C144.617 68.7789 145.209 68.1207 145.971 67.652C146.733 67.1832 147.626 66.9489 148.649 66.9489C149.671 66.9489 150.564 67.1832 151.326 67.652C152.088 68.1207 152.68 68.7789 153.102 69.6264C153.523 70.474 153.734 71.4635 153.734 72.5952C153.734 73.7221 153.523 74.7069 153.102 75.5497C152.68 76.3925 152.088 77.0483 151.326 77.517C150.564 77.9858 149.671 78.2202 148.649 78.2202ZM148.656 76.4375C149.318 76.4375 149.868 76.2623 150.303 75.9119C150.739 75.5616 151.061 75.0952 151.269 74.5128C151.482 73.9304 151.589 73.2888 151.589 72.5881C151.589 71.892 151.482 71.2528 151.269 70.6705C151.061 70.0833 150.739 69.6122 150.303 69.2571C149.868 68.902 149.318 68.7244 148.656 68.7244C147.988 68.7244 147.434 68.902 146.994 69.2571C146.558 69.6122 146.234 70.0833 146.021 70.6705C145.812 71.2528 145.708 71.892 145.708 72.5881C145.708 73.2888 145.812 73.9304 146.021 74.5128C146.234 75.0952 146.558 75.5616 146.994 75.9119C147.434 76.2623 147.988 76.4375 148.656 76.4375ZM158.479 78.2415C157.788 78.2415 157.163 78.1136 156.604 77.858C156.045 77.5975 155.602 77.2211 155.276 76.7287C154.954 76.2363 154.793 75.6326 154.793 74.9176C154.793 74.3021 154.911 73.7955 155.148 73.3977C155.385 73 155.704 72.6851 156.107 72.4531C156.509 72.2211 156.959 72.0459 157.456 71.9276C157.953 71.8092 158.46 71.7192 158.976 71.6577C159.629 71.5819 160.16 71.5204 160.567 71.473C160.974 71.4209 161.27 71.3381 161.455 71.2244C161.639 71.1108 161.732 70.9261 161.732 70.6705V70.6207C161.732 70.0005 161.556 69.5199 161.206 69.179C160.86 68.8381 160.344 68.6676 159.658 68.6676C158.943 68.6676 158.379 68.8262 157.967 69.1435C157.56 69.456 157.279 69.804 157.122 70.1875L155.127 69.733C155.363 69.0701 155.709 68.535 156.163 68.1278C156.623 67.7159 157.151 67.4176 157.747 67.233C158.344 67.0436 158.971 66.9489 159.629 66.9489C160.065 66.9489 160.527 67.0009 161.014 67.1051C161.507 67.2045 161.966 67.3892 162.392 67.6591C162.823 67.929 163.176 68.3149 163.45 68.8168C163.725 69.3139 163.862 69.9602 163.862 70.7557V78H161.788V76.5085H161.703C161.566 76.7831 161.36 77.053 161.085 77.3182C160.811 77.5833 160.458 77.8035 160.027 77.9787C159.596 78.1539 159.08 78.2415 158.479 78.2415ZM158.94 76.5369C159.528 76.5369 160.029 76.4209 160.446 76.1889C160.868 75.9569 161.187 75.6539 161.405 75.2798C161.628 74.901 161.739 74.4962 161.739 74.0653V72.6591C161.663 72.7348 161.516 72.8059 161.298 72.8722C161.085 72.9337 160.842 72.9882 160.567 73.0355C160.292 73.0781 160.025 73.1184 159.764 73.1562C159.504 73.1894 159.286 73.2178 159.111 73.2415C158.699 73.2936 158.323 73.3812 157.982 73.5043C157.645 73.6274 157.376 73.8049 157.172 74.0369C156.973 74.2642 156.874 74.5672 156.874 74.946C156.874 75.4716 157.068 75.8693 157.456 76.1392C157.844 76.4044 158.339 76.5369 158.94 76.5369ZM165.891 78V67.0909H167.943V68.8239H168.057C168.256 68.2367 168.606 67.7751 169.108 67.4389C169.615 67.098 170.188 66.9276 170.827 66.9276C170.959 66.9276 171.116 66.9323 171.296 66.9418C171.48 66.9512 171.625 66.9631 171.729 66.9773V69.0085C171.644 68.9848 171.492 68.9588 171.274 68.9304C171.057 68.8973 170.839 68.8807 170.621 68.8807C170.119 68.8807 169.672 68.9872 169.279 69.2003C168.89 69.4086 168.583 69.6998 168.355 70.0739C168.128 70.4432 168.014 70.8646 168.014 71.3381V78H165.891ZM176.46 78.2131C175.579 78.2131 174.793 77.9882 174.102 77.5384C173.415 77.0838 172.876 76.4375 172.483 75.5994C172.094 74.7566 171.9 73.7457 171.9 72.5668C171.9 71.3878 172.097 70.3793 172.49 69.5412C172.887 68.7031 173.432 68.0616 174.123 67.6165C174.814 67.1714 175.598 66.9489 176.474 66.9489C177.151 66.9489 177.696 67.0625 178.108 67.2898C178.524 67.5123 178.846 67.7727 179.073 68.071C179.305 68.3693 179.485 68.6321 179.613 68.8594H179.741V63.4545H181.865V78H179.791V76.3026H179.613C179.485 76.5346 179.301 76.7997 179.059 77.098C178.822 77.3963 178.496 77.6567 178.079 77.8793C177.662 78.1018 177.123 78.2131 176.46 78.2131ZM176.929 76.402C177.539 76.402 178.055 76.241 178.477 75.919C178.903 75.5923 179.225 75.1402 179.443 74.5625C179.665 73.9848 179.777 73.3125 179.777 72.5455C179.777 71.7879 179.668 71.125 179.45 70.5568C179.232 69.9886 178.912 69.5459 178.491 69.2287C178.07 68.9115 177.549 68.7528 176.929 68.7528C176.289 68.7528 175.757 68.9186 175.331 69.25C174.904 69.5814 174.582 70.0336 174.365 70.6065C174.152 71.1795 174.045 71.8258 174.045 72.5455C174.045 73.2746 174.154 73.9304 174.372 74.5128C174.59 75.0952 174.912 75.5568 175.338 75.8977C175.769 76.2339 176.299 76.402 176.929 76.402Z" fill="#232323"/>
<path d="M29.5494 376.455V391H27.5324L20.1389 380.332H20.0039V391H17.8093V376.455H19.8406L27.2412 387.136H27.3761V376.455H29.5494ZM36.3755 391.22C35.3527 391.22 34.4602 390.986 33.6979 390.517C32.9356 390.048 32.3437 389.393 31.9223 388.55C31.5009 387.707 31.2902 386.722 31.2902 385.595C31.2902 384.464 31.5009 383.474 31.9223 382.626C32.3437 381.779 32.9356 381.121 33.6979 380.652C34.4602 380.183 35.3527 379.949 36.3755 379.949C37.3982 379.949 38.2907 380.183 39.053 380.652C39.8153 381.121 40.4072 381.779 40.8286 382.626C41.25 383.474 41.4607 384.464 41.4607 385.595C41.4607 386.722 41.25 387.707 40.8286 388.55C40.4072 389.393 39.8153 390.048 39.053 390.517C38.2907 390.986 37.3982 391.22 36.3755 391.22ZM36.3826 389.438C37.0454 389.438 37.5947 389.262 38.0303 388.912C38.4659 388.562 38.7879 388.095 38.9962 387.513C39.2093 386.93 39.3158 386.289 39.3158 385.588C39.3158 384.892 39.2093 384.253 38.9962 383.67C38.7879 383.083 38.4659 382.612 38.0303 382.257C37.5947 381.902 37.0454 381.724 36.3826 381.724C35.715 381.724 35.161 381.902 34.7206 382.257C34.285 382.612 33.9607 383.083 33.7476 383.67C33.5393 384.253 33.4351 384.892 33.4351 385.588C33.4351 386.289 33.5393 386.93 33.7476 387.513C33.9607 388.095 34.285 388.562 34.7206 388.912C35.161 389.262 35.715 389.438 36.3826 389.438ZM48.1234 380.091V381.795H42.1646V380.091H48.1234ZM43.7626 377.477H45.8862V387.797C45.8862 388.209 45.9477 388.519 46.0708 388.727C46.194 388.931 46.3526 389.071 46.5467 389.146C46.7456 389.217 46.961 389.253 47.193 389.253C47.3635 389.253 47.5126 389.241 47.6404 389.217C47.7683 389.194 47.8677 389.175 47.9387 389.161L48.3223 390.915C48.1992 390.962 48.024 391.009 47.7967 391.057C47.5694 391.109 47.2853 391.137 46.9444 391.142C46.3857 391.152 45.8649 391.052 45.3819 390.844C44.899 390.635 44.5083 390.313 44.21 389.878C43.9118 389.442 43.7626 388.895 43.7626 388.237V377.477ZM54.257 391.22C53.1822 391.22 52.2565 390.991 51.48 390.531C50.7082 390.067 50.1116 389.416 49.6902 388.578C49.2736 387.735 49.0652 386.748 49.0652 385.616C49.0652 384.499 49.2736 383.514 49.6902 382.662C50.1116 381.81 50.6988 381.144 51.4516 380.666C52.2092 380.188 53.0946 379.949 54.1078 379.949C54.7234 379.949 55.32 380.051 55.8976 380.254C56.4753 380.458 56.9937 380.777 57.453 381.213C57.9123 381.649 58.2745 382.214 58.5397 382.911C58.8048 383.602 58.9374 384.442 58.9374 385.432V386.185H50.2655V384.594H56.8564C56.8564 384.035 56.7428 383.54 56.5155 383.109C56.2882 382.674 55.9686 382.33 55.5567 382.08C55.1495 381.829 54.6713 381.703 54.1221 381.703C53.5255 381.703 53.0046 381.85 52.5596 382.143C52.1192 382.432 51.7783 382.811 51.5368 383.28C51.3001 383.744 51.1817 384.248 51.1817 384.793V386.036C51.1817 386.765 51.3096 387.385 51.5652 387.896C51.8257 388.408 52.1879 388.798 52.6519 389.068C53.1159 389.333 53.658 389.466 54.2783 389.466C54.6808 389.466 55.0477 389.409 55.3792 389.295C55.7106 389.177 55.9971 389.002 56.2385 388.77C56.48 388.538 56.6647 388.251 56.7925 387.911L58.8025 388.273C58.6415 388.865 58.3526 389.383 57.936 389.828C57.524 390.268 57.0056 390.612 56.3806 390.858C55.7603 391.099 55.0525 391.22 54.257 391.22ZM68.6683 382.754L66.7436 383.095C66.6631 382.849 66.5352 382.615 66.3601 382.392C66.1896 382.17 65.9576 381.987 65.664 381.845C65.3705 381.703 65.0035 381.632 64.5632 381.632C63.9619 381.632 63.46 381.767 63.0575 382.037C62.655 382.302 62.4538 382.645 62.4538 383.067C62.4538 383.431 62.5887 383.725 62.8586 383.947C63.1285 384.17 63.5641 384.352 64.1654 384.494L65.8984 384.892C66.9022 385.124 67.6503 385.482 68.1427 385.964C68.6351 386.447 68.8814 387.075 68.8814 387.847C68.8814 388.5 68.692 389.082 68.3132 389.594C67.9391 390.1 67.4159 390.498 66.7436 390.787C66.076 391.076 65.3018 391.22 64.4211 391.22C63.1995 391.22 62.2029 390.96 61.4311 390.439C60.6593 389.913 60.1858 389.168 60.0106 388.202L62.0632 387.889C62.191 388.424 62.4538 388.829 62.8515 389.104C63.2493 389.374 63.7677 389.509 64.4069 389.509C65.1029 389.509 65.6593 389.364 66.076 389.075C66.4926 388.782 66.701 388.424 66.701 388.003C66.701 387.662 66.5731 387.375 66.3174 387.143C66.0665 386.911 65.6806 386.736 65.1598 386.618L63.3132 386.213C62.2952 385.981 61.5423 385.612 61.0547 385.105C60.5717 384.598 60.3302 383.957 60.3302 383.18C60.3302 382.536 60.5101 381.973 60.87 381.49C61.2298 381.007 61.727 380.631 62.3615 380.361C62.9959 380.086 63.7227 379.949 64.5419 379.949C65.7208 379.949 66.6489 380.205 67.326 380.716C68.003 381.223 68.4505 381.902 68.6683 382.754Z" fill="#232323"/>
<rect x="16" y="283" width="343" height="52" rx="10" fill="#367AFF"/>
<path d="M152.608 306.79H150.483C150.422 306.441 150.311 306.133 150.148 305.864C149.985 305.591 149.782 305.36 149.54 305.17C149.297 304.981 149.021 304.839 148.71 304.744C148.403 304.646 148.072 304.597 147.716 304.597C147.083 304.597 146.523 304.756 146.034 305.074C145.545 305.388 145.163 305.85 144.886 306.46C144.61 307.066 144.472 307.807 144.472 308.682C144.472 309.572 144.61 310.322 144.886 310.932C145.167 311.538 145.549 311.996 146.034 312.307C146.523 312.614 147.081 312.767 147.71 312.767C148.059 312.767 148.384 312.722 148.688 312.631C148.994 312.536 149.269 312.398 149.511 312.216C149.758 312.034 149.964 311.811 150.131 311.545C150.301 311.28 150.419 310.977 150.483 310.636L152.608 310.648C152.528 311.201 152.356 311.72 152.091 312.205C151.83 312.689 151.487 313.117 151.062 313.489C150.638 313.856 150.142 314.144 149.574 314.352C149.006 314.557 148.375 314.659 147.682 314.659C146.659 314.659 145.746 314.422 144.943 313.949C144.14 313.475 143.508 312.792 143.045 311.898C142.583 311.004 142.352 309.932 142.352 308.682C142.352 307.428 142.585 306.356 143.051 305.466C143.517 304.572 144.152 303.888 144.955 303.415C145.758 302.941 146.667 302.705 147.682 302.705C148.33 302.705 148.932 302.795 149.489 302.977C150.045 303.159 150.542 303.426 150.977 303.778C151.413 304.127 151.771 304.555 152.051 305.062C152.335 305.566 152.521 306.142 152.608 306.79ZM154.287 314.5V305.773H156.282V307.227H156.373C156.532 306.723 156.804 306.335 157.191 306.062C157.581 305.786 158.026 305.648 158.526 305.648C158.64 305.648 158.767 305.653 158.907 305.665C159.051 305.672 159.17 305.686 159.265 305.705V307.597C159.178 307.566 159.039 307.54 158.85 307.517C158.664 307.491 158.484 307.477 158.31 307.477C157.935 307.477 157.598 307.559 157.299 307.722C157.003 307.881 156.77 308.102 156.6 308.386C156.429 308.67 156.344 308.998 156.344 309.369V314.5H154.287ZM163.975 314.67C163.1 314.67 162.345 314.489 161.708 314.125C161.076 313.758 160.589 313.239 160.248 312.568C159.907 311.894 159.737 311.1 159.737 310.188C159.737 309.29 159.907 308.502 160.248 307.824C160.593 307.142 161.074 306.612 161.691 306.233C162.309 305.85 163.034 305.659 163.868 305.659C164.405 305.659 164.913 305.746 165.39 305.92C165.871 306.091 166.296 306.356 166.663 306.716C167.034 307.076 167.326 307.534 167.538 308.091C167.75 308.644 167.856 309.303 167.856 310.068V310.699H160.703V309.312H165.885C165.881 308.919 165.796 308.568 165.629 308.261C165.462 307.951 165.229 307.706 164.93 307.528C164.635 307.35 164.29 307.261 163.896 307.261C163.475 307.261 163.106 307.364 162.788 307.568C162.47 307.769 162.222 308.034 162.044 308.364C161.869 308.689 161.78 309.047 161.777 309.438V310.648C161.777 311.155 161.869 311.591 162.055 311.955C162.241 312.314 162.5 312.591 162.833 312.784C163.167 312.973 163.557 313.068 164.004 313.068C164.303 313.068 164.574 313.027 164.816 312.943C165.059 312.856 165.269 312.729 165.447 312.562C165.625 312.396 165.76 312.189 165.85 311.943L167.771 312.159C167.65 312.667 167.419 313.11 167.078 313.489C166.741 313.864 166.309 314.155 165.782 314.364C165.256 314.568 164.653 314.67 163.975 314.67ZM171.948 314.676C171.395 314.676 170.896 314.578 170.453 314.381C170.014 314.18 169.665 313.884 169.408 313.494C169.154 313.104 169.027 312.623 169.027 312.051C169.027 311.559 169.118 311.152 169.3 310.83C169.482 310.508 169.73 310.25 170.044 310.057C170.359 309.864 170.713 309.718 171.107 309.619C171.504 309.517 171.915 309.443 172.34 309.398C172.851 309.345 173.266 309.297 173.584 309.256C173.902 309.21 174.133 309.142 174.277 309.051C174.425 308.956 174.499 308.811 174.499 308.614V308.58C174.499 308.152 174.372 307.82 174.118 307.585C173.864 307.35 173.499 307.233 173.021 307.233C172.518 307.233 172.118 307.343 171.823 307.562C171.531 307.782 171.334 308.042 171.232 308.341L169.311 308.068C169.463 307.538 169.713 307.095 170.061 306.739C170.41 306.379 170.836 306.11 171.34 305.932C171.843 305.75 172.4 305.659 173.01 305.659C173.431 305.659 173.849 305.708 174.266 305.807C174.682 305.905 175.063 306.068 175.408 306.295C175.752 306.519 176.029 306.824 176.237 307.21C176.449 307.597 176.556 308.08 176.556 308.659V314.5H174.578V313.301H174.51C174.385 313.544 174.209 313.771 173.982 313.983C173.758 314.191 173.476 314.36 173.135 314.489C172.798 314.614 172.402 314.676 171.948 314.676ZM172.482 313.165C172.895 313.165 173.252 313.083 173.556 312.92C173.859 312.754 174.091 312.534 174.254 312.261C174.421 311.989 174.504 311.691 174.504 311.369V310.341C174.44 310.394 174.33 310.443 174.175 310.489C174.023 310.534 173.853 310.574 173.663 310.608C173.474 310.642 173.287 310.672 173.101 310.699C172.915 310.725 172.754 310.748 172.618 310.767C172.311 310.809 172.037 310.877 171.794 310.972C171.552 311.066 171.36 311.199 171.22 311.369C171.08 311.536 171.01 311.752 171.01 312.017C171.01 312.396 171.148 312.682 171.425 312.875C171.701 313.068 172.054 313.165 172.482 313.165ZM182.822 305.773V307.364H177.805V305.773H182.822ZM179.043 303.682H181.1V311.875C181.1 312.152 181.142 312.364 181.225 312.511C181.312 312.655 181.426 312.754 181.566 312.807C181.706 312.86 181.861 312.886 182.032 312.886C182.161 312.886 182.278 312.877 182.384 312.858C182.494 312.839 182.577 312.822 182.634 312.807L182.981 314.415C182.871 314.453 182.714 314.494 182.509 314.54C182.308 314.585 182.062 314.612 181.771 314.619C181.255 314.634 180.791 314.557 180.378 314.386C179.966 314.212 179.638 313.943 179.396 313.58C179.157 313.216 179.039 312.761 179.043 312.216V303.682ZM188.152 314.67C187.277 314.67 186.521 314.489 185.885 314.125C185.252 313.758 184.765 313.239 184.424 312.568C184.084 311.894 183.913 311.1 183.913 310.188C183.913 309.29 184.084 308.502 184.424 307.824C184.769 307.142 185.25 306.612 185.868 306.233C186.485 305.85 187.21 305.659 188.044 305.659C188.582 305.659 189.089 305.746 189.566 305.92C190.048 306.091 190.472 306.356 190.839 306.716C191.21 307.076 191.502 307.534 191.714 308.091C191.926 308.644 192.032 309.303 192.032 310.068V310.699H184.879V309.312H190.061C190.057 308.919 189.972 308.568 189.805 308.261C189.638 307.951 189.405 307.706 189.106 307.528C188.811 307.35 188.466 307.261 188.072 307.261C187.652 307.261 187.282 307.364 186.964 307.568C186.646 307.769 186.398 308.034 186.22 308.364C186.046 308.689 185.957 309.047 185.953 309.438V310.648C185.953 311.155 186.046 311.591 186.231 311.955C186.417 312.314 186.676 312.591 187.01 312.784C187.343 312.973 187.733 313.068 188.18 313.068C188.479 313.068 188.75 313.027 188.993 312.943C189.235 312.856 189.445 312.729 189.623 312.562C189.801 312.396 189.936 312.189 190.027 311.943L191.947 312.159C191.826 312.667 191.595 313.11 191.254 313.489C190.917 313.864 190.485 314.155 189.959 314.364C189.432 314.568 188.83 314.67 188.152 314.67ZM207.075 302.864V314.5H205.2L199.717 306.574H199.62V314.5H197.512V302.864H199.398L204.876 310.795H204.978V302.864H207.075ZM212.927 314.67C212.075 314.67 211.336 314.483 210.711 314.108C210.086 313.733 209.602 313.208 209.257 312.534C208.916 311.86 208.746 311.072 208.746 310.17C208.746 309.269 208.916 308.479 209.257 307.801C209.602 307.123 210.086 306.597 210.711 306.222C211.336 305.847 212.075 305.659 212.927 305.659C213.78 305.659 214.518 305.847 215.143 306.222C215.768 306.597 216.251 307.123 216.592 307.801C216.937 308.479 217.109 309.269 217.109 310.17C217.109 311.072 216.937 311.86 216.592 312.534C216.251 313.208 215.768 313.733 215.143 314.108C214.518 314.483 213.78 314.67 212.927 314.67ZM212.939 313.023C213.401 313.023 213.787 312.896 214.098 312.642C214.408 312.384 214.64 312.04 214.791 311.608C214.946 311.176 215.024 310.695 215.024 310.165C215.024 309.631 214.946 309.148 214.791 308.716C214.64 308.28 214.408 307.934 214.098 307.676C213.787 307.419 213.401 307.29 212.939 307.29C212.465 307.29 212.071 307.419 211.757 307.676C211.446 307.934 211.213 308.28 211.058 308.716C210.907 309.148 210.831 309.631 210.831 310.165C210.831 310.695 210.907 311.176 211.058 311.608C211.213 312.04 211.446 312.384 211.757 312.642C212.071 312.896 212.465 313.023 212.939 313.023ZM223.053 305.773V307.364H218.036V305.773H223.053ZM219.274 303.682H221.331V311.875C221.331 312.152 221.373 312.364 221.456 312.511C221.543 312.655 221.657 312.754 221.797 312.807C221.937 312.86 222.093 312.886 222.263 312.886C222.392 312.886 222.509 312.877 222.615 312.858C222.725 312.839 222.809 312.822 222.865 312.807L223.212 314.415C223.102 314.453 222.945 314.494 222.74 314.54C222.54 314.585 222.293 314.612 222.002 314.619C221.487 314.634 221.023 314.557 220.61 314.386C220.197 314.212 219.869 313.943 219.627 313.58C219.388 313.216 219.271 312.761 219.274 312.216V303.682ZM228.383 314.67C227.508 314.67 226.752 314.489 226.116 314.125C225.483 313.758 224.997 313.239 224.656 312.568C224.315 311.894 224.144 311.1 224.144 310.188C224.144 309.29 224.315 308.502 224.656 307.824C225 307.142 225.481 306.612 226.099 306.233C226.716 305.85 227.442 305.659 228.275 305.659C228.813 305.659 229.32 305.746 229.798 305.92C230.279 306.091 230.703 306.356 231.07 306.716C231.442 307.076 231.733 307.534 231.945 308.091C232.158 308.644 232.264 309.303 232.264 310.068V310.699H225.11V309.312H230.292C230.288 308.919 230.203 308.568 230.036 308.261C229.87 307.951 229.637 307.706 229.338 307.528C229.042 307.35 228.697 307.261 228.303 307.261C227.883 307.261 227.514 307.364 227.195 307.568C226.877 307.769 226.629 308.034 226.451 308.364C226.277 308.689 226.188 309.047 226.184 309.438V310.648C226.184 311.155 226.277 311.591 226.463 311.955C226.648 312.314 226.908 312.591 227.241 312.784C227.574 312.973 227.964 313.068 228.411 313.068C228.711 313.068 228.981 313.027 229.224 312.943C229.466 312.856 229.677 312.729 229.855 312.562C230.033 312.396 230.167 312.189 230.258 311.943L232.178 312.159C232.057 312.667 231.826 313.11 231.485 313.489C231.148 313.864 230.716 314.155 230.19 314.364C229.663 314.568 229.061 314.67 228.383 314.67Z" fill="white"/>
<path d="M43.6424 55.8431L40.4853 55L37.8248 64.8957L35.4228 55.9618L32.2656 56.8049L34.8608 66.4573L28.3967 60.0152L26.0855 62.3185L33.1758 69.3848L24.346 67.0269L23.5 70.1733L33.1477 72.7496C33.0372 72.2748 32.9788 71.7801 32.9788 71.2717C32.9788 67.6737 35.9055 64.7569 39.5159 64.7569C43.1262 64.7569 46.0529 67.6737 46.0529 71.2717C46.0529 71.7768 45.9952 72.2685 45.8861 72.7405L54.6541 75.0818L55.5 71.9354L45.814 69.3489L54.6444 66.9908L53.7984 63.8444L44.1128 66.4308L50.5768 59.9887L48.2656 57.6854L41.2737 64.6536L43.6424 55.8431Z" fill="#367AFF"/>
<path d="M45.8776 72.7771C45.6069 73.9176 45.0354 74.9421 44.2513 75.763L50.6033 82.0935L52.9145 79.7901L45.8776 72.7771Z" fill="#367AFF"/>
<path d="M44.1872 75.8292C43.3936 76.637 42.3907 77.2398 41.2661 77.5504L43.5775 86.1472L46.7346 85.3041L44.1872 75.8292Z" fill="#367AFF"/>
<path d="M41.1482 77.5818C40.6264 77.7155 40.0795 77.7866 39.5159 77.7866C38.9121 77.7866 38.3274 77.705 37.7723 77.5522L35.4589 86.1569L38.616 86.9999L41.1482 77.5818Z" fill="#367AFF"/>
<path d="M37.6607 77.5206C36.5532 77.1945 35.5682 76.584 34.7908 75.7739L28.4232 82.1199L30.7344 84.4233L37.6607 77.5206Z" fill="#367AFF"/>
<path d="M34.7377 75.7178C33.9737 74.9026 33.4172 73.8917 33.1523 72.7688L24.3557 75.1178L25.2017 78.2642L34.7377 75.7178Z" fill="#367AFF"/>
<g filter="url(#filter0_d_3358_310)">
<rect x="16.5" y="128.5" width="342" height="129" rx="9.5" stroke="#D9D9D9" shape-rendering="crispEdges"/>
<path d="M36.9922 184L32.4141 168H36.1094L38.7578 179.117H38.8906L41.8125 168H44.9766L47.8906 179.141H48.0313L50.6797 168H54.375L49.7969 184H46.5L43.4531 173.539H43.3281L40.2891 184H36.9922ZM60.3027 184.234C59.0684 184.234 58.0059 183.984 57.1152 183.484C56.2298 182.979 55.5475 182.266 55.0684 181.344C54.5892 180.417 54.3496 179.32 54.3496 178.055C54.3496 176.82 54.5892 175.737 55.0684 174.805C55.5475 173.872 56.222 173.146 57.0918 172.625C57.9668 172.104 58.9928 171.844 60.1699 171.844C60.9616 171.844 61.6986 171.971 62.3809 172.227C63.0684 172.477 63.6673 172.854 64.1777 173.359C64.6934 173.865 65.0944 174.5 65.3809 175.266C65.6673 176.026 65.8105 176.917 65.8105 177.937V178.852H55.6777V176.789H62.6777C62.6777 176.31 62.5736 175.885 62.3652 175.516C62.1569 175.146 61.8678 174.857 61.498 174.648C61.1335 174.435 60.709 174.328 60.2246 174.328C59.7194 174.328 59.2715 174.445 58.8809 174.68C58.4954 174.909 58.1934 175.219 57.9746 175.609C57.7559 175.995 57.6439 176.424 57.6387 176.898V178.859C57.6387 179.453 57.748 179.966 57.9668 180.398C58.1908 180.831 58.5059 181.164 58.9121 181.398C59.3184 181.633 59.8001 181.75 60.3574 181.75C60.7272 181.75 61.0658 181.698 61.373 181.594C61.6803 181.49 61.9434 181.333 62.1621 181.125C62.3809 180.917 62.5475 180.661 62.6621 180.359L65.7402 180.562C65.584 181.302 65.2637 181.948 64.7793 182.5C64.3001 183.047 63.6803 183.474 62.9199 183.781C62.1647 184.083 61.2923 184.234 60.3027 184.234ZM71.3105 168V184H67.9824V168H71.3105ZM79.3984 184.234C78.1693 184.234 77.112 183.974 76.2266 183.453C75.3464 182.927 74.6693 182.198 74.1953 181.266C73.7266 180.333 73.4922 179.26 73.4922 178.047C73.4922 176.818 73.7292 175.74 74.2031 174.812C74.6823 173.88 75.362 173.154 76.2422 172.633C77.1224 172.107 78.1693 171.844 79.3828 171.844C80.4297 171.844 81.3464 172.034 82.1328 172.414C82.9193 172.794 83.5417 173.328 84 174.016C84.4583 174.703 84.7109 175.51 84.7578 176.438H81.6172C81.5286 175.839 81.2943 175.357 80.9141 174.992C80.5391 174.622 80.0469 174.437 79.4375 174.437C78.9219 174.437 78.4714 174.578 78.0859 174.859C77.7057 175.135 77.4089 175.539 77.1953 176.07C76.9818 176.602 76.875 177.245 76.875 178C76.875 178.766 76.9792 179.417 77.1875 179.953C77.401 180.49 77.7005 180.898 78.0859 181.18C78.4714 181.461 78.9219 181.602 79.4375 181.602C79.8177 181.602 80.1589 181.523 80.4609 181.367C80.7682 181.211 81.0208 180.984 81.2187 180.687C81.4219 180.385 81.5547 180.023 81.6172 179.602H84.7578C84.7057 180.518 84.4557 181.326 84.0078 182.023C83.5651 182.716 82.9531 183.258 82.1719 183.648C81.3906 184.039 80.4661 184.234 79.3984 184.234ZM92.3105 184.234C91.097 184.234 90.0475 183.977 89.1621 183.461C88.2819 182.94 87.6022 182.216 87.123 181.289C86.6439 180.357 86.4043 179.276 86.4043 178.047C86.4043 176.807 86.6439 175.724 87.123 174.797C87.6022 173.865 88.2819 173.141 89.1621 172.625C90.0475 172.104 91.097 171.844 92.3105 171.844C93.5241 171.844 94.571 172.104 95.4512 172.625C96.3366 173.141 97.0189 173.865 97.498 174.797C97.9772 175.724 98.2168 176.807 98.2168 178.047C98.2168 179.276 97.9772 180.357 97.498 181.289C97.0189 182.216 96.3366 182.94 95.4512 183.461C94.571 183.977 93.5241 184.234 92.3105 184.234ZM92.3262 181.656C92.8783 181.656 93.3392 181.5 93.709 181.188C94.0788 180.87 94.3574 180.437 94.5449 179.891C94.7376 179.344 94.834 178.721 94.834 178.023C94.834 177.326 94.7376 176.703 94.5449 176.156C94.3574 175.609 94.0788 175.177 93.709 174.859C93.3392 174.542 92.8783 174.383 92.3262 174.383C91.7689 174.383 91.3001 174.542 90.9199 174.859C90.5449 175.177 90.2611 175.609 90.0684 176.156C89.8809 176.703 89.7871 177.326 89.7871 178.023C89.7871 178.721 89.8809 179.344 90.0684 179.891C90.2611 180.437 90.5449 180.87 90.9199 181.188C91.3001 181.5 91.7689 181.656 92.3262 181.656ZM100.381 184V172H103.553V174.117H103.693C103.943 173.414 104.36 172.859 104.943 172.453C105.527 172.047 106.225 171.844 107.037 171.844C107.86 171.844 108.561 172.049 109.139 172.461C109.717 172.867 110.102 173.419 110.295 174.117H110.42C110.665 173.43 111.107 172.88 111.748 172.469C112.394 172.052 113.157 171.844 114.037 171.844C115.157 171.844 116.066 172.201 116.764 172.914C117.467 173.622 117.818 174.628 117.818 175.93V184H114.498V176.586C114.498 175.919 114.321 175.419 113.967 175.086C113.613 174.753 113.17 174.586 112.639 174.586C112.035 174.586 111.563 174.779 111.225 175.164C110.886 175.544 110.717 176.047 110.717 176.672V184H107.49V176.516C107.49 175.927 107.321 175.458 106.982 175.109C106.649 174.76 106.209 174.586 105.662 174.586C105.292 174.586 104.959 174.68 104.662 174.867C104.37 175.049 104.139 175.307 103.967 175.641C103.795 175.969 103.709 176.354 103.709 176.797V184H100.381ZM125.916 184.234C124.682 184.234 123.619 183.984 122.729 183.484C121.843 182.979 121.161 182.266 120.682 181.344C120.202 180.417 119.963 179.32 119.963 178.055C119.963 176.82 120.202 175.737 120.682 174.805C121.161 173.872 121.835 173.146 122.705 172.625C123.58 172.104 124.606 171.844 125.783 171.844C126.575 171.844 127.312 171.971 127.994 172.227C128.682 172.477 129.281 172.854 129.791 173.359C130.307 173.865 130.708 174.5 130.994 175.266C131.281 176.026 131.424 176.917 131.424 177.937V178.852H121.291V176.789H128.291C128.291 176.31 128.187 175.885 127.979 175.516C127.77 175.146 127.481 174.857 127.111 174.648C126.747 174.435 126.322 174.328 125.838 174.328C125.333 174.328 124.885 174.445 124.494 174.68C124.109 174.909 123.807 175.219 123.588 175.609C123.369 175.995 123.257 176.424 123.252 176.898V178.859C123.252 179.453 123.361 179.966 123.58 180.398C123.804 180.831 124.119 181.164 124.525 181.398C124.932 181.633 125.413 181.75 125.971 181.75C126.34 181.75 126.679 181.698 126.986 181.594C127.294 181.49 127.557 181.333 127.775 181.125C127.994 180.917 128.161 180.661 128.275 180.359L131.354 180.562C131.197 181.302 130.877 181.948 130.393 182.5C129.913 183.047 129.294 183.474 128.533 183.781C127.778 184.083 126.906 184.234 125.916 184.234ZM137.213 181.812L137.127 182.672C137.059 183.359 136.929 184.044 136.736 184.727C136.549 185.414 136.351 186.036 136.143 186.594C135.939 187.151 135.775 187.589 135.65 187.906H133.494C133.572 187.599 133.679 187.169 133.814 186.617C133.95 186.07 134.077 185.456 134.197 184.773C134.317 184.091 134.393 183.396 134.424 182.687L134.463 181.812H137.213ZM151.064 168H154.408V179.156C154.408 180.187 154.176 181.083 153.713 181.844C153.255 182.604 152.617 183.19 151.799 183.602C150.981 184.013 150.031 184.219 148.947 184.219C147.984 184.219 147.109 184.049 146.322 183.711C145.541 183.367 144.921 182.846 144.463 182.148C144.005 181.445 143.778 180.562 143.783 179.5H147.15C147.161 179.922 147.247 180.284 147.408 180.586C147.575 180.883 147.801 181.112 148.088 181.273C148.38 181.43 148.723 181.508 149.119 181.508C149.536 181.508 149.887 181.419 150.174 181.242C150.465 181.06 150.687 180.794 150.838 180.445C150.989 180.096 151.064 179.667 151.064 179.156V168ZM162.564 184.234C161.351 184.234 160.301 183.977 159.416 183.461C158.536 182.94 157.856 182.216 157.377 181.289C156.898 180.357 156.658 179.276 156.658 178.047C156.658 176.807 156.898 175.724 157.377 174.797C157.856 173.865 158.536 173.141 159.416 172.625C160.301 172.104 161.351 171.844 162.564 171.844C163.778 171.844 164.825 172.104 165.705 172.625C166.59 173.141 167.273 173.865 167.752 174.797C168.231 175.724 168.471 176.807 168.471 178.047C168.471 179.276 168.231 180.357 167.752 181.289C167.273 182.216 166.59 182.94 165.705 183.461C164.825 183.977 163.778 184.234 162.564 184.234ZM162.58 181.656C163.132 181.656 163.593 181.5 163.963 181.188C164.333 180.87 164.611 180.437 164.799 179.891C164.992 179.344 165.088 178.721 165.088 178.023C165.088 177.326 164.992 176.703 164.799 176.156C164.611 175.609 164.333 175.177 163.963 174.859C163.593 174.542 163.132 174.383 162.58 174.383C162.023 174.383 161.554 174.542 161.174 174.859C160.799 175.177 160.515 175.609 160.322 176.156C160.135 176.703 160.041 177.326 160.041 178.023C160.041 178.721 160.135 179.344 160.322 179.891C160.515 180.437 160.799 180.87 161.174 181.188C161.554 181.5 162.023 181.656 162.58 181.656ZM173.963 177.063V184H170.635V172H173.807V174.117H173.947C174.213 173.419 174.658 172.867 175.283 172.461C175.908 172.049 176.666 171.844 177.557 171.844C178.39 171.844 179.117 172.026 179.736 172.391C180.356 172.755 180.838 173.276 181.182 173.953C181.525 174.625 181.697 175.427 181.697 176.359V184H178.369V176.953C178.374 176.219 178.187 175.646 177.807 175.234C177.426 174.818 176.903 174.609 176.236 174.609C175.788 174.609 175.393 174.706 175.049 174.898C174.71 175.091 174.445 175.372 174.252 175.742C174.064 176.107 173.968 176.547 173.963 177.063ZM187.742 184.227C186.977 184.227 186.294 184.094 185.695 183.828C185.096 183.557 184.622 183.159 184.273 182.633C183.93 182.102 183.758 181.44 183.758 180.648C183.758 179.982 183.88 179.422 184.125 178.969C184.37 178.516 184.703 178.151 185.125 177.875C185.547 177.599 186.026 177.391 186.563 177.25C187.104 177.109 187.672 177.01 188.266 176.953C188.964 176.88 189.526 176.812 189.953 176.75C190.38 176.682 190.69 176.583 190.883 176.453C191.076 176.323 191.172 176.13 191.172 175.875V175.828C191.172 175.333 191.016 174.951 190.703 174.68C190.396 174.409 189.958 174.273 189.391 174.273C188.792 174.273 188.315 174.406 187.961 174.672C187.607 174.932 187.372 175.26 187.258 175.656L184.18 175.406C184.336 174.677 184.643 174.047 185.102 173.516C185.56 172.979 186.151 172.568 186.875 172.281C187.604 171.99 188.448 171.844 189.406 171.844C190.073 171.844 190.711 171.922 191.32 172.078C191.935 172.234 192.479 172.477 192.953 172.805C193.432 173.133 193.81 173.555 194.086 174.07C194.362 174.581 194.5 175.193 194.5 175.906V184H191.344V182.336H191.25C191.057 182.711 190.799 183.042 190.477 183.328C190.154 183.609 189.766 183.831 189.313 183.992C188.859 184.148 188.336 184.227 187.742 184.227ZM188.695 181.93C189.185 181.93 189.617 181.833 189.992 181.641C190.367 181.443 190.661 181.177 190.875 180.844C191.089 180.51 191.195 180.133 191.195 179.711V178.438C191.091 178.505 190.948 178.568 190.766 178.625C190.589 178.677 190.388 178.727 190.164 178.773C189.94 178.815 189.716 178.854 189.492 178.891C189.268 178.922 189.065 178.951 188.883 178.977C188.492 179.034 188.151 179.125 187.859 179.25C187.568 179.375 187.341 179.544 187.18 179.758C187.018 179.966 186.938 180.227 186.938 180.539C186.938 180.992 187.102 181.339 187.43 181.578C187.763 181.812 188.185 181.93 188.695 181.93ZM207.066 175.422L204.02 175.609C203.967 175.349 203.855 175.115 203.684 174.906C203.512 174.693 203.285 174.523 203.004 174.398C202.728 174.268 202.397 174.203 202.012 174.203C201.496 174.203 201.061 174.312 200.707 174.531C200.353 174.745 200.176 175.031 200.176 175.391C200.176 175.677 200.29 175.919 200.52 176.117C200.749 176.315 201.142 176.474 201.699 176.594L203.871 177.031C205.038 177.271 205.908 177.656 206.48 178.187C207.053 178.719 207.34 179.417 207.34 180.281C207.34 181.068 207.108 181.758 206.645 182.352C206.186 182.945 205.556 183.409 204.754 183.742C203.957 184.07 203.038 184.234 201.996 184.234C200.408 184.234 199.142 183.904 198.199 183.242C197.262 182.576 196.712 181.669 196.551 180.523L199.824 180.352C199.923 180.836 200.163 181.206 200.543 181.461C200.923 181.711 201.41 181.836 202.004 181.836C202.587 181.836 203.056 181.724 203.41 181.5C203.77 181.271 203.952 180.977 203.957 180.617C203.952 180.315 203.824 180.068 203.574 179.875C203.324 179.677 202.939 179.526 202.418 179.422L200.34 179.008C199.168 178.773 198.296 178.367 197.723 177.789C197.155 177.211 196.871 176.474 196.871 175.578C196.871 174.807 197.079 174.143 197.496 173.586C197.918 173.029 198.509 172.599 199.27 172.297C200.035 171.995 200.931 171.844 201.957 171.844C203.473 171.844 204.665 172.164 205.535 172.805C206.41 173.445 206.921 174.318 207.066 175.422ZM214.59 184V168H217.973V175.055H218.184L223.941 168H227.996L222.059 175.164L228.066 184H224.02L219.637 177.422L217.973 179.453V184H214.59ZM233.117 184.227C232.352 184.227 231.669 184.094 231.07 183.828C230.471 183.557 229.997 183.159 229.648 182.633C229.305 182.102 229.133 181.44 229.133 180.648C229.133 179.982 229.255 179.422 229.5 178.969C229.745 178.516 230.078 178.151 230.5 177.875C230.922 177.599 231.401 177.391 231.938 177.25C232.479 177.109 233.047 177.01 233.641 176.953C234.339 176.88 234.901 176.812 235.328 176.75C235.755 176.682 236.065 176.583 236.258 176.453C236.451 176.323 236.547 176.13 236.547 175.875V175.828C236.547 175.333 236.391 174.951 236.078 174.68C235.771 174.409 235.333 174.273 234.766 174.273C234.167 174.273 233.69 174.406 233.336 174.672C232.982 174.932 232.747 175.26 232.633 175.656L229.555 175.406C229.711 174.677 230.018 174.047 230.477 173.516C230.935 172.979 231.526 172.568 232.25 172.281C232.979 171.99 233.823 171.844 234.781 171.844C235.448 171.844 236.086 171.922 236.695 172.078C237.31 172.234 237.854 172.477 238.328 172.805C238.807 173.133 239.185 173.555 239.461 174.07C239.737 174.581 239.875 175.193 239.875 175.906V184H236.719V182.336H236.625C236.432 182.711 236.174 183.042 235.852 183.328C235.529 183.609 235.141 183.831 234.688 183.992C234.234 184.148 233.711 184.227 233.117 184.227ZM234.07 181.93C234.56 181.93 234.992 181.833 235.367 181.641C235.742 181.443 236.036 181.177 236.25 180.844C236.464 180.51 236.57 180.133 236.57 179.711V178.438C236.466 178.505 236.323 178.568 236.141 178.625C235.964 178.677 235.763 178.727 235.539 178.773C235.315 178.815 235.091 178.854 234.867 178.891C234.643 178.922 234.44 178.951 234.258 178.977C233.867 179.034 233.526 179.125 233.234 179.25C232.943 179.375 232.716 179.544 232.555 179.758C232.393 179.966 232.313 180.227 232.313 180.539C232.313 180.992 232.477 181.339 232.805 181.578C233.138 181.812 233.56 181.93 234.07 181.93ZM245.785 177.063V184H242.457V168H245.691V174.117H245.832C246.103 173.409 246.54 172.854 247.145 172.453C247.749 172.047 248.507 171.844 249.418 171.844C250.251 171.844 250.978 172.026 251.598 172.391C252.223 172.75 252.707 173.268 253.051 173.945C253.4 174.617 253.572 175.422 253.566 176.359V184H250.238V176.953C250.243 176.214 250.056 175.638 249.676 175.227C249.301 174.815 248.775 174.609 248.098 174.609C247.645 174.609 247.243 174.706 246.895 174.898C246.551 175.091 246.28 175.372 246.082 175.742C245.889 176.107 245.79 176.547 245.785 177.063ZM259.514 177.063V184H256.186V172H259.357V174.117H259.498C259.764 173.419 260.209 172.867 260.834 172.461C261.459 172.049 262.217 171.844 263.107 171.844C263.941 171.844 264.667 172.026 265.287 172.391C265.907 172.755 266.389 173.276 266.732 173.953C267.076 174.625 267.248 175.427 267.248 176.359V184H263.92V176.953C263.925 176.219 263.738 175.646 263.357 175.234C262.977 174.818 262.454 174.609 261.787 174.609C261.339 174.609 260.943 174.706 260.6 174.898C260.261 175.091 259.995 175.372 259.803 175.742C259.615 176.107 259.519 176.547 259.514 177.063ZM272.238 184L268.973 172H272.34L274.199 180.062H274.309L276.246 172H279.551L281.52 180.016H281.621L283.449 172H286.809L283.551 184H280.027L277.965 176.453H277.816L275.754 184H272.238ZM292.006 184.227C291.24 184.227 290.558 184.094 289.959 183.828C289.36 183.557 288.886 183.159 288.537 182.633C288.193 182.102 288.021 181.44 288.021 180.648C288.021 179.982 288.144 179.422 288.389 178.969C288.633 178.516 288.967 178.151 289.389 177.875C289.811 177.599 290.29 177.391 290.826 177.25C291.368 177.109 291.936 177.01 292.529 176.953C293.227 176.88 293.79 176.812 294.217 176.75C294.644 176.682 294.954 176.583 295.146 176.453C295.339 176.323 295.436 176.13 295.436 175.875V175.828C295.436 175.333 295.279 174.951 294.967 174.68C294.66 174.409 294.222 174.273 293.654 174.273C293.055 174.273 292.579 174.406 292.225 174.672C291.87 174.932 291.636 175.26 291.521 175.656L288.443 175.406C288.6 174.677 288.907 174.047 289.365 173.516C289.824 172.979 290.415 172.568 291.139 172.281C291.868 171.99 292.712 171.844 293.67 171.844C294.337 171.844 294.975 171.922 295.584 172.078C296.199 172.234 296.743 172.477 297.217 172.805C297.696 173.133 298.074 173.555 298.35 174.07C298.626 174.581 298.764 175.193 298.764 175.906V184H295.607V182.336H295.514C295.321 182.711 295.063 183.042 294.74 183.328C294.417 183.609 294.029 183.831 293.576 183.992C293.123 184.148 292.6 184.227 292.006 184.227ZM292.959 181.93C293.449 181.93 293.881 181.833 294.256 181.641C294.631 181.443 294.925 181.177 295.139 180.844C295.352 180.51 295.459 180.133 295.459 179.711V178.438C295.355 178.505 295.212 178.568 295.029 178.625C294.852 178.677 294.652 178.727 294.428 178.773C294.204 178.815 293.98 178.854 293.756 178.891C293.532 178.922 293.329 178.951 293.146 178.977C292.756 179.034 292.415 179.125 292.123 179.25C291.831 179.375 291.605 179.544 291.443 179.758C291.282 179.966 291.201 180.227 291.201 180.539C291.201 180.992 291.365 181.339 291.693 181.578C292.027 181.812 292.449 181.93 292.959 181.93ZM304.674 168V184H301.346V168H304.674ZM311.762 184.195C310.85 184.195 310.025 183.961 309.285 183.492C308.551 183.018 307.967 182.323 307.535 181.406C307.108 180.484 306.895 179.354 306.895 178.016C306.895 176.641 307.116 175.497 307.559 174.586C308.001 173.669 308.59 172.984 309.324 172.531C310.064 172.073 310.874 171.844 311.754 171.844C312.426 171.844 312.986 171.958 313.434 172.188C313.887 172.411 314.251 172.693 314.527 173.031C314.809 173.365 315.022 173.693 315.168 174.016H315.27V168H318.59V184H315.309V182.078H315.168C315.012 182.411 314.79 182.742 314.504 183.07C314.223 183.393 313.855 183.661 313.402 183.875C312.954 184.089 312.408 184.195 311.762 184.195ZM312.816 181.547C313.353 181.547 313.806 181.401 314.176 181.109C314.551 180.812 314.837 180.398 315.035 179.867C315.238 179.336 315.34 178.714 315.34 178C315.34 177.286 315.241 176.667 315.043 176.141C314.845 175.615 314.559 175.208 314.184 174.922C313.809 174.635 313.353 174.492 312.816 174.492C312.27 174.492 311.809 174.641 311.434 174.937C311.059 175.234 310.775 175.646 310.582 176.172C310.389 176.698 310.293 177.307 310.293 178C310.293 178.698 310.389 179.315 310.582 179.852C310.78 180.383 311.064 180.799 311.434 181.102C311.809 181.398 312.27 181.547 312.816 181.547ZM330.395 168L330.09 179.203H327.23L326.918 168H330.395ZM328.66 184.203C328.145 184.203 327.702 184.021 327.332 183.656C326.962 183.286 326.78 182.844 326.785 182.328C326.78 181.818 326.962 181.38 327.332 181.016C327.702 180.651 328.145 180.469 328.66 180.469C329.155 180.469 329.59 180.651 329.965 181.016C330.34 181.38 330.53 181.818 330.535 182.328C330.53 182.672 330.439 182.987 330.262 183.273C330.09 183.555 329.863 183.781 329.582 183.953C329.301 184.12 328.993 184.203 328.66 184.203ZM33.4091 224V212.364H40.4318V213.614H34.8182V217.545H40.0682V218.795H34.8182V222.75H40.5227V224H33.4091ZM42.7898 224V215.273H44.0852V216.636H44.1989C44.3807 216.17 44.6742 215.809 45.0795 215.551C45.4848 215.29 45.9716 215.159 46.5398 215.159C47.1155 215.159 47.5947 215.29 47.9773 215.551C48.3636 215.809 48.6648 216.17 48.8807 216.636H48.9716C49.1951 216.186 49.5303 215.828 49.9773 215.562C50.4242 215.294 50.9602 215.159 51.5852 215.159C52.3655 215.159 53.0038 215.403 53.5 215.892C53.9962 216.377 54.2443 217.133 54.2443 218.159V224H52.9034V218.159C52.9034 217.515 52.7273 217.055 52.375 216.778C52.0227 216.502 51.608 216.364 51.1307 216.364C50.517 216.364 50.0417 216.549 49.7045 216.92C49.3674 217.288 49.1989 217.754 49.1989 218.318V224H47.8352V218.023C47.8352 217.527 47.6742 217.127 47.3523 216.824C47.0303 216.517 46.6155 216.364 46.108 216.364C45.7595 216.364 45.4337 216.456 45.1307 216.642C44.8314 216.828 44.589 217.085 44.4034 217.415C44.2216 217.741 44.1307 218.117 44.1307 218.545V224H42.7898ZM59.2642 224.205C58.7112 224.205 58.2093 224.1 57.7585 223.892C57.3078 223.68 56.9498 223.375 56.6847 222.977C56.4195 222.576 56.2869 222.091 56.2869 221.523C56.2869 221.023 56.3854 220.617 56.5824 220.307C56.7794 219.992 57.0426 219.746 57.3722 219.568C57.7017 219.39 58.0653 219.258 58.4631 219.17C58.8646 219.08 59.268 219.008 59.6733 218.955C60.2036 218.886 60.6335 218.835 60.9631 218.801C61.2964 218.763 61.5388 218.701 61.6903 218.614C61.8456 218.527 61.9233 218.375 61.9233 218.159V218.114C61.9233 217.553 61.7699 217.117 61.4631 216.807C61.16 216.496 60.6998 216.341 60.0824 216.341C59.4422 216.341 58.9403 216.481 58.5767 216.761C58.2131 217.042 57.9574 217.341 57.8097 217.659L56.5369 217.205C56.7642 216.674 57.0672 216.261 57.446 215.966C57.8286 215.667 58.2453 215.458 58.696 215.341C59.1506 215.22 59.5975 215.159 60.0369 215.159C60.3172 215.159 60.6392 215.193 61.0028 215.261C61.3703 215.326 61.7244 215.46 62.0653 215.665C62.41 215.869 62.696 216.178 62.9233 216.591C63.1506 217.004 63.2642 217.557 63.2642 218.25V224H61.9233V222.818H61.8551C61.7642 223.008 61.6127 223.21 61.4006 223.426C61.1884 223.642 60.9063 223.826 60.554 223.977C60.2017 224.129 59.7718 224.205 59.2642 224.205ZM59.4688 223C59.9991 223 60.446 222.896 60.8097 222.688C61.1771 222.479 61.4536 222.21 61.6392 221.881C61.8286 221.551 61.9233 221.205 61.9233 220.841V219.614C61.8665 219.682 61.7415 219.744 61.5483 219.801C61.3589 219.854 61.1392 219.902 60.8892 219.943C60.643 219.981 60.4025 220.015 60.1676 220.045C59.9366 220.072 59.7491 220.095 59.6051 220.114C59.2566 220.159 58.9309 220.233 58.6278 220.335C58.3286 220.434 58.0862 220.583 57.9006 220.784C57.7188 220.981 57.6278 221.25 57.6278 221.591C57.6278 222.057 57.8002 222.409 58.1449 222.648C58.4934 222.883 58.9347 223 59.4688 223ZM65.7116 224V215.273H67.0526V224H65.7116ZM66.3935 213.818C66.1321 213.818 65.9067 213.729 65.7173 213.551C65.5317 213.373 65.4389 213.159 65.4389 212.909C65.4389 212.659 65.5317 212.445 65.7173 212.267C65.9067 212.089 66.1321 212 66.3935 212C66.6548 212 66.8783 212.089 67.0639 212.267C67.2533 212.445 67.348 212.659 67.348 212.909C67.348 213.159 67.2533 213.373 67.0639 213.551C66.8783 213.729 66.6548 213.818 66.3935 213.818ZM70.8494 212.364V224H69.5085V212.364H70.8494ZM74.2827 224.091C74.0024 224.091 73.7618 223.991 73.5611 223.79C73.3603 223.589 73.2599 223.348 73.2599 223.068C73.2599 222.788 73.3603 222.547 73.5611 222.347C73.7618 222.146 74.0024 222.045 74.2827 222.045C74.563 222.045 74.8035 222.146 75.0043 222.347C75.205 222.547 75.3054 222.788 75.3054 223.068C75.3054 223.254 75.258 223.424 75.1634 223.58C75.0724 223.735 74.9493 223.86 74.794 223.955C74.6425 224.045 74.4721 224.091 74.2827 224.091ZM74.2827 217.614C74.0024 217.614 73.7618 217.513 73.5611 217.312C73.3603 217.112 73.2599 216.871 73.2599 216.591C73.2599 216.311 73.3603 216.07 73.5611 215.869C73.7618 215.669 74.0024 215.568 74.2827 215.568C74.563 215.568 74.8035 215.669 75.0043 215.869C75.205 216.07 75.3054 216.311 75.3054 216.591C75.3054 216.777 75.258 216.947 75.1634 217.102C75.0724 217.258 74.9493 217.383 74.794 217.477C74.6425 217.568 74.4721 217.614 74.2827 217.614ZM83.2116 215.273L85.3026 218.841L87.3935 215.273H88.9389L86.1207 219.636L88.9389 224H87.3935L85.3026 220.614L83.2116 224H81.6662L84.4389 219.636L81.6662 215.273H83.2116ZM91.8523 215.273L93.9432 218.841L96.0341 215.273H97.5795L94.7614 219.636L97.5795 224H96.0341L93.9432 220.614L91.8523 224H90.3068L93.0795 219.636L90.3068 215.273H91.8523ZM100.493 215.273L102.584 218.841L104.675 215.273H106.22L103.402 219.636L106.22 224H104.675L102.584 220.614L100.493 224H98.9474L101.72 219.636L98.9474 215.273H100.493ZM109.134 215.273L111.224 218.841L113.315 215.273H114.861L112.043 219.636L114.861 224H113.315L111.224 220.614L109.134 224H107.588L110.361 219.636L107.588 215.273H109.134ZM117.774 215.273L119.865 218.841L121.956 215.273H123.501L120.683 219.636L123.501 224H121.956L119.865 220.614L117.774 224H116.229L119.001 219.636L116.229 215.273H117.774ZM126.415 215.273L128.506 218.841L130.597 215.273H132.142L129.324 219.636L132.142 224H130.597L128.506 220.614L126.415 224H124.869L127.642 219.636L124.869 215.273H126.415ZM140.76 227.068C139.601 227.068 138.576 226.909 137.686 226.591C136.796 226.277 136.048 225.813 135.442 225.199C134.836 224.585 134.377 223.833 134.067 222.943C133.756 222.053 133.601 221.034 133.601 219.886C133.601 218.777 133.758 217.784 134.072 216.909C134.391 216.034 134.851 215.292 135.453 214.682C136.059 214.068 136.794 213.6 137.658 213.278C138.525 212.956 139.506 212.795 140.601 212.795C141.665 212.795 142.597 212.97 143.396 213.318C144.199 213.663 144.87 214.131 145.408 214.722C145.949 215.309 146.355 215.97 146.624 216.705C146.896 217.439 147.033 218.197 147.033 218.977C147.033 219.527 147.006 220.083 146.953 220.648C146.9 221.212 146.788 221.731 146.618 222.205C146.447 222.674 146.184 223.053 145.828 223.341C145.476 223.629 144.999 223.773 144.396 223.773C144.131 223.773 143.839 223.731 143.521 223.648C143.203 223.564 142.921 223.426 142.675 223.233C142.429 223.04 142.283 222.78 142.237 222.455H142.169C142.078 222.674 141.938 222.883 141.749 223.08C141.563 223.277 141.319 223.434 141.016 223.551C140.716 223.669 140.351 223.72 139.919 223.705C139.427 223.686 138.993 223.576 138.618 223.375C138.243 223.17 137.929 222.894 137.675 222.545C137.425 222.193 137.235 221.786 137.107 221.324C136.982 220.858 136.919 220.356 136.919 219.818C136.919 219.307 136.995 218.839 137.146 218.415C137.298 217.991 137.508 217.619 137.777 217.301C138.05 216.983 138.368 216.729 138.732 216.54C139.099 216.347 139.495 216.227 139.919 216.182C140.298 216.144 140.643 216.161 140.953 216.233C141.264 216.301 141.519 216.405 141.72 216.545C141.921 216.682 142.048 216.833 142.101 217H142.169V216.364H143.374V221.5C143.374 221.818 143.463 222.098 143.641 222.341C143.819 222.583 144.078 222.705 144.419 222.705C144.805 222.705 145.101 222.572 145.305 222.307C145.514 222.042 145.656 221.633 145.732 221.08C145.811 220.527 145.851 219.818 145.851 218.955C145.851 218.447 145.781 217.947 145.641 217.455C145.504 216.958 145.296 216.494 145.016 216.062C144.739 215.631 144.389 215.25 143.964 214.92C143.54 214.591 143.042 214.333 142.47 214.148C141.902 213.958 141.256 213.864 140.533 213.864C139.643 213.864 138.845 214.002 138.141 214.278C137.44 214.551 136.843 214.951 136.351 215.477C135.862 216 135.489 216.636 135.232 217.386C134.978 218.133 134.851 218.981 134.851 219.932C134.851 220.898 134.978 221.756 135.232 222.506C135.489 223.256 135.868 223.888 136.368 224.403C136.872 224.919 137.495 225.309 138.237 225.574C138.98 225.843 139.836 225.977 140.805 225.977C141.222 225.977 141.633 225.938 142.038 225.858C142.444 225.778 142.802 225.691 143.112 225.597C143.423 225.502 143.646 225.432 143.783 225.386L144.101 226.432C143.866 226.53 143.559 226.629 143.18 226.727C142.805 226.826 142.404 226.907 141.976 226.972C141.552 227.036 141.146 227.068 140.76 227.068ZM140.101 222.545C140.608 222.545 141.019 222.443 141.334 222.239C141.648 222.034 141.877 221.725 142.021 221.312C142.165 220.9 142.237 220.379 142.237 219.75C142.237 219.114 142.158 218.617 141.999 218.261C141.839 217.905 141.605 217.655 141.294 217.511C140.983 217.367 140.601 217.295 140.146 217.295C139.714 217.295 139.345 217.409 139.038 217.636C138.735 217.86 138.502 218.159 138.339 218.534C138.18 218.905 138.101 219.311 138.101 219.75C138.101 220.235 138.165 220.691 138.294 221.119C138.423 221.544 138.633 221.888 138.925 222.153C139.216 222.415 139.608 222.545 140.101 222.545ZM150.04 215.273L152.131 218.841L154.222 215.273H155.767L152.949 219.636L155.767 224H154.222L152.131 220.614L150.04 224H148.494L151.267 219.636L148.494 215.273H150.04ZM158.68 215.273L160.771 218.841L162.862 215.273H164.408L161.589 219.636L164.408 224H162.862L160.771 220.614L158.68 224H157.135L159.908 219.636L157.135 215.273H158.68ZM167.321 215.273L169.412 218.841L171.503 215.273H173.048L170.23 219.636L173.048 224H171.503L169.412 220.614L167.321 224H165.776L168.548 219.636L165.776 215.273H167.321ZM175.962 215.273L178.053 218.841L180.143 215.273H181.689L178.871 219.636L181.689 224H180.143L178.053 220.614L175.962 224H174.416L177.189 219.636L174.416 215.273H175.962ZM184.58 224.091C184.299 224.091 184.059 223.991 183.858 223.79C183.657 223.589 183.557 223.348 183.557 223.068C183.557 222.788 183.657 222.547 183.858 222.347C184.059 222.146 184.299 222.045 184.58 222.045C184.86 222.045 185.1 222.146 185.301 222.347C185.502 222.547 185.602 222.788 185.602 223.068C185.602 223.254 185.555 223.424 185.46 223.58C185.369 223.735 185.246 223.86 185.091 223.955C184.939 224.045 184.769 224.091 184.58 224.091ZM191.554 224.182C190.736 224.182 190.031 223.989 189.44 223.602C188.849 223.216 188.395 222.684 188.077 222.006C187.759 221.328 187.599 220.553 187.599 219.682C187.599 218.795 187.762 218.013 188.088 217.335C188.418 216.653 188.876 216.121 189.463 215.739C190.054 215.352 190.743 215.159 191.531 215.159C192.145 215.159 192.698 215.273 193.19 215.5C193.683 215.727 194.086 216.045 194.401 216.455C194.715 216.864 194.91 217.341 194.986 217.886H193.645C193.543 217.489 193.315 217.136 192.963 216.83C192.615 216.519 192.145 216.364 191.554 216.364C191.031 216.364 190.573 216.5 190.179 216.773C189.789 217.042 189.484 217.422 189.264 217.915C189.048 218.403 188.94 218.977 188.94 219.636C188.94 220.311 189.046 220.898 189.259 221.398C189.474 221.898 189.777 222.286 190.168 222.562C190.562 222.839 191.024 222.977 191.554 222.977C191.902 222.977 192.219 222.917 192.503 222.795C192.787 222.674 193.027 222.5 193.224 222.273C193.421 222.045 193.562 221.773 193.645 221.455H194.986C194.91 221.97 194.723 222.434 194.423 222.847C194.128 223.256 193.736 223.581 193.247 223.824C192.762 224.062 192.198 224.182 191.554 224.182ZM200.491 224.182C199.704 224.182 199.012 223.994 198.418 223.619C197.827 223.244 197.365 222.72 197.031 222.045C196.702 221.371 196.537 220.583 196.537 219.682C196.537 218.773 196.702 217.979 197.031 217.301C197.365 216.623 197.827 216.097 198.418 215.722C199.012 215.347 199.704 215.159 200.491 215.159C201.279 215.159 201.969 215.347 202.56 215.722C203.154 216.097 203.616 216.623 203.946 217.301C204.279 217.979 204.446 218.773 204.446 219.682C204.446 220.583 204.279 221.371 203.946 222.045C203.616 222.72 203.154 223.244 202.56 223.619C201.969 223.994 201.279 224.182 200.491 224.182ZM200.491 222.977C201.09 222.977 201.582 222.824 201.969 222.517C202.355 222.21 202.641 221.807 202.827 221.307C203.012 220.807 203.105 220.265 203.105 219.682C203.105 219.098 203.012 218.555 202.827 218.051C202.641 217.547 202.355 217.14 201.969 216.83C201.582 216.519 201.09 216.364 200.491 216.364C199.893 216.364 199.401 216.519 199.014 216.83C198.628 217.14 198.342 217.547 198.156 218.051C197.971 218.555 197.878 219.098 197.878 219.682C197.878 220.265 197.971 220.807 198.156 221.307C198.342 221.807 198.628 222.21 199.014 222.517C199.401 222.824 199.893 222.977 200.491 222.977ZM206.493 224V215.273H207.788V216.636H207.902C208.084 216.17 208.377 215.809 208.783 215.551C209.188 215.29 209.675 215.159 210.243 215.159C210.819 215.159 211.298 215.29 211.68 215.551C212.067 215.809 212.368 216.17 212.584 216.636H212.675C212.898 216.186 213.233 215.828 213.68 215.562C214.127 215.294 214.663 215.159 215.288 215.159C216.069 215.159 216.707 215.403 217.203 215.892C217.699 216.377 217.947 217.133 217.947 218.159V224H216.607V218.159C216.607 217.515 216.43 217.055 216.078 216.778C215.726 216.502 215.311 216.364 214.834 216.364C214.22 216.364 213.745 216.549 213.408 216.92C213.071 217.288 212.902 217.754 212.902 218.318V224H211.538V218.023C211.538 217.527 211.377 217.127 211.055 216.824C210.733 216.517 210.319 216.364 209.811 216.364C209.463 216.364 209.137 216.456 208.834 216.642C208.535 216.828 208.292 217.085 208.107 217.415C207.925 217.741 207.834 218.117 207.834 218.545V224H206.493Z" fill="#232323"/>
<a href="mailto:jonas_kahnwald@gmail.com">
<rect fill="black" fill-opacity="0" x="123.814" y="14.1875" width="52.2988" height="26.625"/>
</a>
<a href="mailto:jonas_kahnwald@gmail.com">
<rect fill="black" fill-opacity="0" x="196.367" y="14.1875" width="91.6211" height="26.625"/>
</a>
</g>
<g filter="url(#filter1_d_3358_310)">
<rect x="16.5" y="405.5" width="342" height="49" rx="9.5" stroke="#D9D9D9" shape-rendering="crispEdges"/>
<path d="M42.6364 424.364V436H41.2727L34.9318 426.864H34.8182V436H33.4091V424.364H34.7727L41.1364 433.523H41.25V424.364H42.6364ZM48.8196 436.182C48.0317 436.182 47.3404 435.994 46.7457 435.619C46.1548 435.244 45.6927 434.72 45.3594 434.045C45.0298 433.371 44.8651 432.583 44.8651 431.682C44.8651 430.773 45.0298 429.979 45.3594 429.301C45.6927 428.623 46.1548 428.097 46.7457 427.722C47.3404 427.347 48.0317 427.159 48.8196 427.159C49.6075 427.159 50.2969 427.347 50.8878 427.722C51.4825 428.097 51.9446 428.623 52.2741 429.301C52.6075 429.979 52.7741 430.773 52.7741 431.682C52.7741 432.583 52.6075 433.371 52.2741 434.045C51.9446 434.72 51.4825 435.244 50.8878 435.619C50.2969 435.994 49.6075 436.182 48.8196 436.182ZM48.8196 434.977C49.4181 434.977 49.9105 434.824 50.2969 434.517C50.6832 434.21 50.9692 433.807 51.1548 433.307C51.3404 432.807 51.4332 432.265 51.4332 431.682C51.4332 431.098 51.3404 430.555 51.1548 430.051C50.9692 429.547 50.6832 429.14 50.2969 428.83C49.9105 428.519 49.4181 428.364 48.8196 428.364C48.2211 428.364 47.7287 428.519 47.3423 428.83C46.956 429.14 46.67 429.547 46.4844 430.051C46.2988 430.555 46.206 431.098 46.206 431.682C46.206 432.265 46.2988 432.807 46.4844 433.307C46.67 433.807 46.956 434.21 47.3423 434.517C47.7287 434.824 48.2211 434.977 48.8196 434.977ZM58.6165 427.273V428.409H54.0938V427.273H58.6165ZM55.4119 425.182H56.7528V433.5C56.7528 433.879 56.8078 434.163 56.9176 434.352C57.0313 434.538 57.1752 434.663 57.3494 434.727C57.5275 434.788 57.715 434.818 57.9119 434.818C58.0597 434.818 58.1809 434.811 58.2756 434.795C58.3703 434.777 58.446 434.761 58.5028 434.75L58.7756 435.955C58.6847 435.989 58.5578 436.023 58.3949 436.057C58.232 436.095 58.0256 436.114 57.7756 436.114C57.3968 436.114 57.0256 436.032 56.6619 435.869C56.3021 435.706 56.0028 435.458 55.7642 435.125C55.5294 434.792 55.4119 434.371 55.4119 433.864V425.182ZM64.1989 436.182C63.358 436.182 62.6326 435.996 62.0227 435.625C61.4167 435.25 60.9489 434.727 60.6193 434.057C60.2936 433.383 60.1307 432.598 60.1307 431.705C60.1307 430.811 60.2936 430.023 60.6193 429.341C60.9489 428.655 61.4072 428.121 61.9943 427.739C62.5852 427.352 63.2746 427.159 64.0625 427.159C64.517 427.159 64.9659 427.235 65.4091 427.386C65.8523 427.538 66.2557 427.784 66.6193 428.125C66.983 428.462 67.2727 428.909 67.4886 429.466C67.7045 430.023 67.8125 430.708 67.8125 431.523V432.091H61.0852V430.932H66.4489C66.4489 430.439 66.3504 430 66.1534 429.614C65.9602 429.227 65.6837 428.922 65.3239 428.699C64.9678 428.475 64.5473 428.364 64.0625 428.364C63.5284 428.364 63.0663 428.496 62.6761 428.761C62.2898 429.023 61.9924 429.364 61.7841 429.784C61.5758 430.205 61.4716 430.655 61.4716 431.136V431.909C61.4716 432.568 61.5852 433.127 61.8125 433.585C62.0436 434.04 62.3636 434.386 62.7727 434.625C63.1818 434.86 63.6572 434.977 64.1989 434.977C64.5511 434.977 64.8693 434.928 65.1534 434.83C65.4413 434.727 65.6894 434.576 65.8977 434.375C66.1061 434.17 66.267 433.917 66.3807 433.614L67.6761 433.977C67.5398 434.417 67.3106 434.803 66.9886 435.136C66.6667 435.466 66.2689 435.723 65.7955 435.909C65.322 436.091 64.7898 436.182 64.1989 436.182ZM78.4205 424.364V436H77.0114V425.841H76.9432L74.1023 427.727V426.295L77.0114 424.364H78.4205Z" fill="#232323"/>
</g>
<g filter="url(#filter2_d_3358_310)">
<rect x="16.5" y="465.5" width="342" height="49" rx="9.5" stroke="#D9D9D9" shape-rendering="crispEdges"/>
<path d="M42.6364 484.364V496H41.2727L34.9318 486.864H34.8182V496H33.4091V484.364H34.7727L41.1364 493.523H41.25V484.364H42.6364ZM48.8196 496.182C48.0317 496.182 47.3404 495.994 46.7457 495.619C46.1548 495.244 45.6927 494.72 45.3594 494.045C45.0298 493.371 44.8651 492.583 44.8651 491.682C44.8651 490.773 45.0298 489.979 45.3594 489.301C45.6927 488.623 46.1548 488.097 46.7457 487.722C47.3404 487.347 48.0317 487.159 48.8196 487.159C49.6075 487.159 50.2969 487.347 50.8878 487.722C51.4825 488.097 51.9446 488.623 52.2741 489.301C52.6075 489.979 52.7741 490.773 52.7741 491.682C52.7741 492.583 52.6075 493.371 52.2741 494.045C51.9446 494.72 51.4825 495.244 50.8878 495.619C50.2969 495.994 49.6075 496.182 48.8196 496.182ZM48.8196 494.977C49.4181 494.977 49.9105 494.824 50.2969 494.517C50.6832 494.21 50.9692 493.807 51.1548 493.307C51.3404 492.807 51.4332 492.265 51.4332 491.682C51.4332 491.098 51.3404 490.555 51.1548 490.051C50.9692 489.547 50.6832 489.14 50.2969 488.83C49.9105 488.519 49.4181 488.364 48.8196 488.364C48.2211 488.364 47.7287 488.519 47.3423 488.83C46.956 489.14 46.67 489.547 46.4844 490.051C46.2988 490.555 46.206 491.098 46.206 491.682C46.206 492.265 46.2988 492.807 46.4844 493.307C46.67 493.807 46.956 494.21 47.3423 494.517C47.7287 494.824 48.2211 494.977 48.8196 494.977ZM58.6165 487.273V488.409H54.0938V487.273H58.6165ZM55.4119 485.182H56.7528V493.5C56.7528 493.879 56.8078 494.163 56.9176 494.352C57.0313 494.538 57.1752 494.663 57.3494 494.727C57.5275 494.788 57.715 494.818 57.9119 494.818C58.0597 494.818 58.1809 494.811 58.2756 494.795C58.3703 494.777 58.446 494.761 58.5028 494.75L58.7756 495.955C58.6847 495.989 58.5578 496.023 58.3949 496.057C58.232 496.095 58.0256 496.114 57.7756 496.114C57.3968 496.114 57.0256 496.032 56.6619 495.869C56.3021 495.706 56.0028 495.458 55.7642 495.125C55.5294 494.792 55.4119 494.371 55.4119 493.864V485.182ZM64.1989 496.182C63.358 496.182 62.6326 495.996 62.0227 495.625C61.4167 495.25 60.9489 494.727 60.6193 494.057C60.2936 493.383 60.1307 492.598 60.1307 491.705C60.1307 490.811 60.2936 490.023 60.6193 489.341C60.9489 488.655 61.4072 488.121 61.9943 487.739C62.5852 487.352 63.2746 487.159 64.0625 487.159C64.517 487.159 64.9659 487.235 65.4091 487.386C65.8523 487.538 66.2557 487.784 66.6193 488.125C66.983 488.462 67.2727 488.909 67.4886 489.466C67.7045 490.023 67.8125 490.708 67.8125 491.523V492.091H61.0852V490.932H66.4489C66.4489 490.439 66.3504 490 66.1534 489.614C65.9602 489.227 65.6837 488.922 65.3239 488.699C64.9678 488.475 64.5473 488.364 64.0625 488.364C63.5284 488.364 63.0663 488.496 62.6761 488.761C62.2898 489.023 61.9924 489.364 61.7841 489.784C61.5758 490.205 61.4716 490.655 61.4716 491.136V491.909C61.4716 492.568 61.5852 493.127 61.8125 493.585C62.0436 494.04 62.3636 494.386 62.7727 494.625C63.1818 494.86 63.6572 494.977 64.1989 494.977C64.5511 494.977 64.8693 494.928 65.1534 494.83C65.4413 494.727 65.6894 494.576 65.8977 494.375C66.1061 494.17 66.267 493.917 66.3807 493.614L67.6761 493.977C67.5398 494.417 67.3106 494.803 66.9886 495.136C66.6667 495.466 66.2689 495.723 65.7955 495.909C65.322 496.091 64.7898 496.182 64.1989 496.182ZM74.3295 496V494.977L78.1705 490.773C78.6212 490.28 78.9924 489.852 79.2841 489.489C79.5758 489.121 79.7917 488.777 79.9318 488.455C80.0758 488.129 80.1477 487.788 80.1477 487.432C80.1477 487.023 80.0492 486.669 79.8523 486.369C79.6591 486.07 79.3939 485.839 79.0568 485.676C78.7197 485.513 78.3409 485.432 77.9205 485.432C77.4735 485.432 77.0833 485.525 76.75 485.71C76.4205 485.892 76.1648 486.148 75.983 486.477C75.8049 486.807 75.7159 487.193 75.7159 487.636H74.375C74.375 486.955 74.5322 486.356 74.8466 485.841C75.161 485.326 75.589 484.924 76.1307 484.636C76.6761 484.348 77.2879 484.205 77.9659 484.205C78.6477 484.205 79.2519 484.348 79.7784 484.636C80.3049 484.924 80.7178 485.312 81.017 485.801C81.3163 486.29 81.4659 486.833 81.4659 487.432C81.4659 487.86 81.3883 488.278 81.233 488.688C81.0814 489.093 80.8163 489.545 80.4375 490.045C80.0625 490.542 79.5417 491.148 78.875 491.864L76.2614 494.659V494.75H81.6705V496H74.3295Z" fill="#232323"/>
</g>
<path d="M300.919 68.6172C300.873 68.183 300.678 67.8449 300.333 67.603C299.991 67.361 299.547 67.2401 299 67.2401C298.616 67.2401 298.286 67.2981 298.011 67.4141C297.736 67.5301 297.526 67.6875 297.38 67.8864C297.234 68.0852 297.159 68.3123 297.156 68.5675C297.156 68.7796 297.204 68.9635 297.3 69.1193C297.4 69.2751 297.534 69.4077 297.703 69.517C297.872 69.6231 298.059 69.7126 298.265 69.7855C298.47 69.8584 298.677 69.9197 298.886 69.9695L299.841 70.2081C300.225 70.2976 300.595 70.4186 300.949 70.571C301.307 70.7235 301.627 70.9157 301.909 71.1477C302.194 71.3797 302.419 71.6598 302.585 71.9879C302.751 72.3161 302.834 72.7005 302.834 73.1413C302.834 73.7379 302.681 74.2633 302.376 74.7173C302.071 75.1681 301.63 75.5211 301.054 75.7763C300.48 76.0282 299.786 76.1541 298.971 76.1541C298.178 76.1541 297.491 76.0315 296.907 75.7862C296.327 75.541 295.873 75.183 295.545 74.7124C295.22 74.2417 295.045 73.6683 295.018 72.9922H296.833C296.859 73.3468 296.969 73.6418 297.161 73.8771C297.353 74.1125 297.603 74.2881 297.912 74.4041C298.223 74.5201 298.571 74.5781 298.956 74.5781C299.357 74.5781 299.708 74.5185 300.01 74.3991C300.315 74.2765 300.553 74.1075 300.726 73.892C300.898 73.6733 300.986 73.4181 300.989 73.1264C300.986 72.8613 300.908 72.6425 300.755 72.4702C300.603 72.2945 300.389 72.1487 300.114 72.0327C299.842 71.9134 299.524 71.8073 299.16 71.7145L298.001 71.4162C297.163 71.2008 296.5 70.8743 296.013 70.4368C295.529 69.996 295.287 69.411 295.287 68.6818C295.287 68.0819 295.449 67.5566 295.774 67.1058C296.102 66.6551 296.548 66.3054 297.111 66.0568C297.675 65.8049 298.313 65.679 299.025 65.679C299.748 65.679 300.381 65.8049 300.924 66.0568C301.471 66.3054 301.901 66.6518 302.212 67.0959C302.524 67.5367 302.684 68.0438 302.694 68.6172H300.919ZM304.398 76V68.3636H306.198V76H304.398ZM305.303 67.2798C305.018 67.2798 304.773 67.1854 304.567 66.9964C304.362 66.8042 304.259 66.5739 304.259 66.3054C304.259 66.0336 304.362 65.8033 304.567 65.6143C304.773 65.4221 305.018 65.326 305.303 65.326C305.592 65.326 305.837 65.4221 306.039 65.6143C306.244 65.8033 306.347 66.0336 306.347 66.3054C306.347 66.5739 306.244 66.8042 306.039 66.9964C305.837 67.1854 305.592 67.2798 305.303 67.2798ZM311.37 79.0227C310.723 79.0227 310.168 78.9349 309.704 78.7592C309.24 78.5869 308.867 78.3549 308.586 78.0632C308.304 77.7715 308.108 77.4484 307.999 77.0938L309.62 76.701C309.693 76.8501 309.799 76.9976 309.938 77.1435C310.077 77.2926 310.264 77.4152 310.5 77.5114C310.738 77.6108 311.038 77.6605 311.4 77.6605C311.91 77.6605 312.333 77.5362 312.667 77.2876C313.002 77.0424 313.169 76.638 313.169 76.0746V74.6278H313.08C312.987 74.8134 312.851 75.004 312.672 75.1996C312.497 75.3951 312.263 75.5592 311.971 75.6918C311.683 75.8243 311.32 75.8906 310.883 75.8906C310.296 75.8906 309.764 75.7531 309.287 75.478C308.813 75.1996 308.435 74.7853 308.153 74.2351C307.875 73.6816 307.736 72.9889 307.736 72.157C307.736 71.3184 307.875 70.6108 308.153 70.0341C308.435 69.4541 308.814 69.0149 309.292 68.7166C309.769 68.415 310.301 68.2642 310.888 68.2642C311.335 68.2642 311.703 68.3404 311.991 68.4929C312.283 68.642 312.515 68.8227 312.687 69.0348C312.86 69.2436 312.991 69.4408 313.08 69.6264H313.179V68.3636H314.954V76.1243C314.954 76.7772 314.799 77.3175 314.487 77.745C314.175 78.1726 313.749 78.4924 313.209 78.7045C312.669 78.9167 312.056 79.0227 311.37 79.0227ZM311.385 74.4787C311.766 74.4787 312.091 74.3859 312.359 74.2003C312.628 74.0147 312.831 73.7479 312.971 73.3999C313.11 73.0518 313.179 72.6342 313.179 72.147C313.179 71.6664 313.11 71.2455 312.971 70.8842C312.835 70.523 312.633 70.2429 312.364 70.044C312.099 69.8419 311.772 69.7408 311.385 69.7408C310.984 69.7408 310.649 69.8452 310.38 70.054C310.112 70.2628 309.91 70.5495 309.774 70.9141C309.638 71.2753 309.57 71.6863 309.57 72.147C309.57 72.6143 309.638 73.0237 309.774 73.375C309.913 73.723 310.117 73.9948 310.385 74.1903C310.657 74.3826 310.99 74.4787 311.385 74.4787ZM318.598 71.5256V76H316.799V68.3636H318.519V69.6612H318.608C318.784 69.2337 319.064 68.8939 319.449 68.642C319.836 68.3902 320.315 68.2642 320.885 68.2642C321.412 68.2642 321.871 68.3769 322.263 68.6023C322.657 68.8277 322.962 69.1541 323.177 69.5817C323.396 70.0092 323.504 70.5279 323.5 71.1378V76H321.701V71.4162C321.701 70.9058 321.568 70.5064 321.303 70.218C321.041 69.9297 320.678 69.7855 320.214 69.7855C319.899 69.7855 319.619 69.8551 319.374 69.9943C319.132 70.1302 318.941 70.3274 318.802 70.5859C318.666 70.8445 318.598 71.1577 318.598 71.5256ZM337.98 70.9091C337.98 72.0062 337.775 72.9458 337.364 73.728C336.956 74.5069 336.399 75.1035 335.693 75.5178C334.991 75.9321 334.194 76.1392 333.302 76.1392C332.41 76.1392 331.612 75.9321 330.906 75.5178C330.203 75.1001 329.646 74.5019 329.235 73.723C328.828 72.9408 328.624 72.0028 328.624 70.9091C328.624 69.812 328.828 68.8741 329.235 68.0952C329.646 67.313 330.203 66.7147 330.906 66.3004C331.612 65.8861 332.41 65.679 333.302 65.679C334.194 65.679 334.991 65.8861 335.693 66.3004C336.399 66.7147 336.956 67.313 337.364 68.0952C337.775 68.8741 337.98 69.812 337.98 70.9091ZM336.126 70.9091C336.126 70.1368 336.005 69.4856 335.763 68.9553C335.524 68.4216 335.193 68.0189 334.769 67.7472C334.344 67.4721 333.855 67.3345 333.302 67.3345C332.748 67.3345 332.26 67.4721 331.835 67.7472C331.411 68.0189 331.078 68.4216 330.836 68.9553C330.597 69.4856 330.478 70.1368 330.478 70.9091C330.478 71.6813 330.597 72.3343 330.836 72.8679C331.078 73.3982 331.411 73.8009 331.835 74.076C332.26 74.3478 332.748 74.4837 333.302 74.4837C333.855 74.4837 334.344 74.3478 334.769 74.076C335.193 73.8009 335.524 73.3982 335.763 72.8679C336.005 72.3343 336.126 71.6813 336.126 70.9091ZM344.512 72.7884V68.3636H346.311V76H344.566V74.6428H344.487C344.314 75.0703 344.031 75.42 343.637 75.6918C343.246 75.9635 342.763 76.0994 342.19 76.0994C341.689 76.0994 341.247 75.9884 340.862 75.7663C340.481 75.541 340.183 75.2145 339.968 74.7869C339.752 74.3561 339.644 73.8357 339.644 73.2259V68.3636H341.444V72.9474C341.444 73.4313 341.577 73.8158 341.842 74.1009C342.107 74.3859 342.455 74.5284 342.886 74.5284C343.151 74.5284 343.408 74.4638 343.657 74.3345C343.905 74.2053 344.109 74.013 344.268 73.7578C344.43 73.4993 344.512 73.1761 344.512 72.7884ZM351.975 68.3636V69.7557H347.585V68.3636H351.975ZM348.669 66.5341H350.469V73.7031C350.469 73.9451 350.505 74.1307 350.578 74.2599C350.654 74.3859 350.754 74.4721 350.877 74.5185C350.999 74.5649 351.135 74.5881 351.284 74.5881C351.397 74.5881 351.5 74.5798 351.592 74.5632C351.689 74.5466 351.761 74.5317 351.811 74.5185L352.114 75.9254C352.018 75.9586 351.881 75.995 351.702 76.0348C351.526 76.0746 351.311 76.0978 351.055 76.1044C350.605 76.1177 350.199 76.0497 349.837 75.9006C349.476 75.7481 349.189 75.5128 348.977 75.1946C348.769 74.8764 348.666 74.4787 348.669 74.0014V66.5341Z" fill="#367AFF"/>
<path d="M294.382 78.7841H352.557V79.7386H294.382V78.7841Z" fill="#367AFF"/>
<path d="M328.308 438.5C327.811 438.5 327.385 438.323 327.031 437.969C326.677 437.615 326.5 437.189 326.5 436.692V424H326.25C326.038 424 325.859 423.928 325.716 423.784C325.572 423.64 325.5 423.462 325.5 423.25C325.5 423.037 325.572 422.859 325.716 422.715C325.859 422.572 326.038 422.5 326.25 422.5H330C330 422.255 330.086 422.046 330.259 421.874C330.431 421.702 330.64 421.615 330.885 421.615H335.116C335.36 421.615 335.569 421.702 335.741 421.874C335.914 422.046 336 422.255 336 422.5H339.75C339.963 422.5 340.141 422.572 340.284 422.716C340.428 422.86 340.5 423.038 340.5 423.25C340.5 423.463 340.428 423.641 340.284 423.784C340.141 423.928 339.963 424 339.75 424H339.5V436.692C339.5 437.189 339.323 437.615 338.969 437.969C338.615 438.323 338.189 438.5 337.692 438.5H328.308ZM338 424H328V436.692C328 436.782 328.029 436.856 328.086 436.913C328.144 436.971 328.218 437 328.308 437H337.692C337.782 437 337.856 436.971 337.913 436.913C337.971 436.856 338 436.782 338 436.692V424ZM331.154 435C331.367 435 331.545 434.928 331.689 434.784C331.832 434.641 331.904 434.462 331.904 434.25V426.75C331.904 426.537 331.832 426.359 331.688 426.215C331.544 426.072 331.366 426 331.154 426C330.941 426 330.763 426.072 330.619 426.215C330.476 426.359 330.404 426.537 330.404 426.75V434.25C330.404 434.462 330.476 434.641 330.62 434.784C330.763 434.928 330.942 435 331.154 435ZM334.846 435C335.059 435 335.237 434.928 335.381 434.784C335.524 434.641 335.596 434.462 335.596 434.25V426.75C335.596 426.537 335.524 426.359 335.38 426.215C335.237 426.072 335.058 426 334.846 426C334.633 426 334.455 426.072 334.312 426.215C334.168 426.359 334.096 426.537 334.096 426.75V434.25C334.096 434.462 334.168 434.641 334.312 434.784C334.456 434.928 334.634 435 334.846 435Z" fill="#050400"/>
<path d="M328.308 500.5C327.811 500.5 327.385 500.323 327.031 499.969C326.677 499.615 326.5 499.189 326.5 498.692V486H326.25C326.038 486 325.859 485.928 325.716 485.784C325.572 485.64 325.5 485.462 325.5 485.25C325.5 485.037 325.572 484.859 325.716 484.715C325.859 484.572 326.038 484.5 326.25 484.5H330C330 484.255 330.086 484.046 330.259 483.874C330.431 483.702 330.64 483.615 330.885 483.615H335.116C335.36 483.615 335.569 483.702 335.741 483.874C335.914 484.046 336 484.255 336 484.5H339.75C339.963 484.5 340.141 484.572 340.284 484.716C340.428 484.86 340.5 485.038 340.5 485.25C340.5 485.463 340.428 485.641 340.284 485.784C340.141 485.928 339.963 486 339.75 486H339.5V498.692C339.5 499.189 339.323 499.615 338.969 499.969C338.615 500.323 338.189 500.5 337.692 500.5H328.308ZM338 486H328V498.692C328 498.782 328.029 498.856 328.086 498.913C328.144 498.971 328.218 499 328.308 499H337.692C337.782 499 337.856 498.971 337.913 498.913C337.971 498.856 338 498.782 338 498.692V486ZM331.154 497C331.367 497 331.545 496.928 331.689 496.784C331.832 496.641 331.904 496.462 331.904 496.25V488.75C331.904 488.537 331.832 488.359 331.688 488.215C331.544 488.072 331.366 488 331.154 488C330.941 488 330.763 488.072 330.619 488.215C330.476 488.359 330.404 488.537 330.404 488.75V496.25C330.404 496.462 330.476 496.641 330.62 496.784C330.763 496.928 330.942 497 331.154 497ZM334.846 497C335.059 497 335.237 496.928 335.381 496.784C335.524 496.641 335.596 496.462 335.596 496.25V488.75C335.596 488.537 335.524 488.359 335.38 488.215C335.237 488.072 335.058 488 334.846 488C334.633 488 334.455 488.072 334.312 488.215C334.168 488.359 334.096 488.537 334.096 488.75V496.25C334.096 496.462 334.168 496.641 334.312 496.784C334.456 496.928 334.634 497 334.846 497Z" fill="#050400"/>
</g>
<rect x="0.5" y="0.5" width="374" height="811" rx="8.5" stroke="#232323"/>
<defs>
<filter id="filter0_d_3358_310" x="10" y="124" width="355" height="142" filterUnits="userSpaceOnUse" color-interpolation-filters="sRGB">
<feFlood flood-opacity="0" result="BackgroundImageFix"/>
<feColorMatrix in="SourceAlpha" type="matrix" values="0 0 0 0 0 0 0 0 0 0 0 0 0 0 0 0 0 0 127 0" result="hardAlpha"/>
<feOffset dy="2"/>
<feGaussianBlur stdDeviation="3"/>
<feComposite in2="hardAlpha" operator="out"/>
<feColorMatrix type="matrix" values="0 0 0 0 0 0 0 0 0 0 0 0 0 0 0 0 0 0 0.59 0"/>
<feBlend mode="normal" in2="BackgroundImageFix" result="effect1_dropShadow_3358_310"/>
<feBlend mode="normal" in="SourceGraphic" in2="effect1_dropShadow_3358_310" result="shape"/>
</filter>
<filter id="filter1_d_3358_310" x="10" y="401" width="355" height="62" filterUnits="userSpaceOnUse" color-interpolation-filters="sRGB">
<feFlood flood-opacity="0" result="BackgroundImageFix"/>
<feColorMatrix in="SourceAlpha" type="matrix" values="0 0 0 0 0 0 0 0 0 0 0 0 0 0 0 0 0 0 127 0" result="hardAlpha"/>
<feOffset dy="2"/>
<feGaussianBlur stdDeviation="3"/>
<feComposite in2="hardAlpha" operator="out"/>
<feColorMatrix type="matrix" values="0 0 0 0 0 0 0 0 0 0 0 0 0 0 0 0 0 0 0.59 0"/>
<feBlend mode="normal" in2="BackgroundImageFix" result="effect1_dropShadow_3358_310"/>
<feBlend mode="normal" in="SourceGraphic" in2="effect1_dropShadow_3358_310" result="shape"/>
</filter>
<filter id="filter2_d_3358_310" x="10" y="461" width="355" height="62" filterUnits="userSpaceOnUse" color-interpolation-filters="sRGB">
<feFlood flood-opacity="0" result="BackgroundImageFix"/>
<feColorMatrix in="SourceAlpha" type="matrix" values="0 0 0 0 0 0 0 0 0 0 0 0 0 0 0 0 0 0 127 0" result="hardAlpha"/>
<feOffset dy="2"/>
<feGaussianBlur stdDeviation="3"/>
<feComposite in2="hardAlpha" operator="out"/>
<feColorMatrix type="matrix" values="0 0 0 0 0 0 0 0 0 0 0 0 0 0 0 0 0 0 0.59 0"/>
<feBlend mode="normal" in2="BackgroundImageFix" result="effect1_dropShadow_3358_310"/>
<feBlend mode="normal" in="SourceGraphic" in2="effect1_dropShadow_3358_310" result="shape"/>
</filter>
<clipPath id="clip0_3358_310">
<rect width="375" height="812" rx="9" fill="white"/>
</clipPath>
</defs>
</svg>
